<svg width="44" height="46" viewBox="0 0 44 46" fill="none" xmlns="http://www.w3.org/2000/svg">
<path fill-rule="evenodd" clip-rule="evenodd" d="M28.2028 0.104967L2.76603 1.98496C0.713918 2.16252 0 3.50433 0 5.11247V33.0157C0 34.2683 0.444533 35.3401 1.51702 36.7725L7.49637 44.5524C8.47876 45.805 9.37196 46.0736 11.2476 45.9844L40.7867 44.195C43.2842 44.017 44 42.8532 44 40.8862V9.49483C44 8.47825 43.5987 8.18523 42.4172 7.31768L34.0948 1.44631C32.1305 0.0171084 31.3274 -0.163669 28.2028 0.104507V0.104967ZM11.9155 8.98102C9.50344 9.1434 8.95639 9.1802 7.58648 8.06563L4.10377 5.29371C3.7498 4.93491 3.9277 4.48734 4.81953 4.3981L29.2725 2.6101C31.326 2.4307 32.3953 3.14691 33.1984 3.7725L37.3922 6.81307C37.5715 6.90369 38.0174 7.43866 37.481 7.43866L12.2281 8.95986L11.9155 8.98102ZM9.1035 40.6181V13.9692C9.1035 12.8054 9.46069 12.2686 10.53 12.1784L39.5344 10.4792C40.5182 10.3904 40.9627 11.016 40.9627 12.178V38.6493C40.9627 39.8131 40.7835 40.7975 39.1777 40.8862L11.4222 42.4962C9.8165 42.585 9.10396 42.05 9.10396 40.6181H9.1035ZM36.5018 15.3979C36.6797 16.2029 36.5018 17.0079 35.6973 17.0999L34.3596 17.3653V37.0407C33.1979 37.6663 32.1286 38.0237 31.235 38.0237C29.8067 38.0237 29.4499 37.5761 28.3802 36.2357L19.6321 22.4635V35.7881L22.3995 36.4151C22.3995 36.4151 22.3995 38.0251 20.1667 38.0251L14.0113 38.3825C13.832 38.0237 14.0113 37.1299 14.6351 36.9519L16.2427 36.5057V18.8879L14.0117 18.7071C13.8325 17.9022 14.2784 16.7397 15.5288 16.6496L22.1333 16.2048L31.2354 30.155V17.8134L28.9153 17.5466C28.736 16.5608 29.4499 15.8446 30.3418 15.7572L36.5018 15.3979Z" fill="black"/>
</svg>
