<svg width="48" height="48" viewBox="0 0 48 48" fill="none" xmlns="http://www.w3.org/2000/svg">
<g clip-path="url(#clip0_2_1665)">
<path d="M24 0C37.2548 0 48 10.7452 48 24C48 37.2548 37.2548 48 24 48C10.7452 48 0 37.2548 0 24C0 10.7452 10.7452 0 24 0ZM21.8213 9.47559C19.7874 9.79059 17.1103 10.5938 14.3701 12.916C12.7649 14.3028 11.4807 16.0229 10.6074 17.9561C9.73423 19.8891 9.29302 21.9893 9.31348 24.1104C9.3173 24.0984 10.7877 19.5161 12.625 19.0957C12.8928 19.0239 13.1738 19.016 13.4453 19.0723C13.7171 19.1287 13.9722 19.2482 14.1895 19.4209C14.4067 19.5937 14.581 19.8153 14.6973 20.0674C14.8133 20.3193 14.8681 20.5949 14.8584 20.8721V31.6533C14.8583 32.751 14.1534 32.9893 13.5029 32.9775C13.0614 32.9467 12.6248 32.8649 12.2021 32.7334C13.5469 34.5533 15.2942 36.0376 17.3076 37.0703C19.321 38.103 21.546 38.6561 23.8086 38.6865L27.7822 34.6895L30.1367 37.3389C36.0046 34.5661 37.8462 29.4469 38.2598 27.4512C36.1141 29.6587 33.7404 31.8807 32.1377 30.3418C32.1377 30.3418 32.0508 22.113 32.0508 18.7383C32.0508 14.2053 36.3584 10.8203 36.3584 10.8203C33.9919 11.2412 31.1498 12.08 28.1387 15.0381C27.8658 15.3083 27.6071 15.5932 27.3643 15.8906C26.0778 14.9097 24.4168 15.1934 24.3945 15.1973C25.2996 15.6918 26.203 17.1414 26.2031 18.3408V30.1299C26.1934 30.1384 24.226 31.866 22.708 31.8662C22.3648 31.8697 22.0252 31.7913 21.7188 31.6367C21.4123 31.4821 21.1475 31.2557 20.9463 30.9775C20.827 30.8194 20.7275 30.6468 20.6514 30.4639V15.9053C20.2008 16.2761 18.6828 16.573 18.6826 14.0586C18.6826 12.4898 19.8126 10.6206 21.8213 9.47559Z" fill="#1F1F1F"/>
</g>
<defs>
<clipPath id="clip0_2_1665">
<rect width="48" height="48" rx="24" fill="white"/>
</clipPath>
</defs>
</svg>
