<svg width="621" height="1053" viewBox="0 0 621 1053" fill="none" xmlns="http://www.w3.org/2000/svg">
<rect width="621" height="1053" fill="white"/>
<rect x="193" y="109" width="224" height="32" rx="3" fill="white" stroke="#757575" stroke-width="2" stroke-linecap="round"/>
<text fill="#1E1E1E" text-anchor="middle" style="white-space: pre" xml:space="preserve" font-family="Inter" font-size="11" font-weight="500" letter-spacing="0em"><tspan x="305" y="129">Approaches AR table</tspan></text>
<rect x="193" y="161" width="224" height="32" rx="3" fill="white" stroke="#757575" stroke-width="2" stroke-linecap="round"/>
<text fill="#1E1E1E" text-anchor="middle" style="white-space: pre" xml:space="preserve" font-family="Inter" font-size="11" font-weight="500" letter-spacing="0em"><tspan x="305" y="181">Puts on headset</tspan></text>
<rect x="193" y="213" width="224" height="32" rx="3" fill="white" stroke="#FF0000" stroke-width="2" stroke-linecap="round"/>
<text fill="#1E1E1E" text-anchor="middle" style="white-space: pre" xml:space="preserve" font-family="Inter" font-size="11" font-weight="500" letter-spacing="0em"><tspan x="305" y="233">Selects app</tspan></text>
<path d="M300.757 266.757C303.101 264.414 306.899 264.414 309.243 266.757L370.243 327.757C372.586 330.101 372.586 333.899 370.243 336.243L309.243 397.243C306.899 399.586 303.101 399.586 300.757 397.243L239.757 336.243C237.414 333.899 237.414 330.101 239.757 327.757L300.757 266.757Z" fill="white" stroke="#757575" stroke-width="2" stroke-linecap="round"/>
<text fill="#1E1E1E" text-anchor="middle" style="white-space: pre" xml:space="preserve" font-family="Inter" font-size="11" font-weight="500" letter-spacing="0em"><tspan x="305" y="327.5">Shared or </tspan><tspan x="305" y="344.5">Solo?</tspan></text>
<rect x="33" y="419" width="224" height="32" rx="3" fill="#815A00" stroke="#815A00" stroke-width="2" stroke-linecap="round"/>
<text fill="white" text-anchor="middle" style="white-space: pre" xml:space="preserve" font-family="Inter" font-size="11" font-weight="600" letter-spacing="0em"><tspan x="145" y="439">Enters hidden presenter mode</tspan></text>
<rect x="33" y="471" width="224" height="32" rx="3" fill="white" stroke="#FF0000" stroke-width="2" stroke-linecap="round"/>
<text fill="#1E1E1E" text-anchor="middle" style="white-space: pre" xml:space="preserve" font-family="Inter" font-size="11" font-weight="500" letter-spacing="0em"><tspan x="145" y="491">Scans AR tracker</tspan></text>
<rect x="33" y="523" width="224" height="32" rx="3" fill="#815A00" stroke="#815A00" stroke-width="2" stroke-linecap="round"/>
<text fill="white" text-anchor="middle" style="white-space: pre" xml:space="preserve" font-family="Inter" font-size="11" font-weight="600" letter-spacing="0em"><tspan x="145" y="543">Leads experience layer by layer</tspan></text>
<path d="M140.757 624.757C143.101 622.414 146.899 622.414 149.243 624.757L210.243 685.757C212.586 688.101 212.586 691.899 210.243 694.243L149.243 755.243C146.899 757.586 143.101 757.586 140.757 755.243L79.7574 694.243C77.4142 691.899 77.4142 688.101 79.7574 685.757L140.757 624.757Z" fill="white" stroke="#757575" stroke-width="2" stroke-linecap="round"/>
<text fill="#1E1E1E" text-anchor="middle" style="white-space: pre" xml:space="preserve" font-family="Inter" font-size="11" font-weight="500" letter-spacing="0em"><tspan x="145" y="685.5">Continues </tspan><tspan x="145" y="702.5">or Stops?</tspan></text>
<rect x="33" y="789" width="224" height="32" rx="3" fill="white" stroke="#757575" stroke-width="2" stroke-linecap="round"/>
<text fill="#1E1E1E" text-anchor="middle" style="white-space: pre" xml:space="preserve" font-family="Inter" font-size="11" font-weight="500" letter-spacing="0em"><tspan x="145" y="809">Shared session ends</tspan></text>
<rect x="353" y="419" width="224" height="32" rx="3" fill="white" stroke="#757575" stroke-width="2" stroke-linecap="round"/>
<text fill="#1E1E1E" text-anchor="middle" style="white-space: pre" xml:space="preserve" font-family="Inter" font-size="11" font-weight="500" letter-spacing="0em"><tspan x="465" y="439">Follows onboarding &#38; controls tutorial</tspan></text>
<rect x="353" y="471" width="224" height="32" rx="3" fill="white" stroke="#FF0000" stroke-width="2" stroke-linecap="round"/>
<text fill="#1E1E1E" text-anchor="middle" style="white-space: pre" xml:space="preserve" font-family="Inter" font-size="11" font-weight="500" letter-spacing="0em"><tspan x="465" y="491">Scans AR tracker</tspan></text>
<rect x="353" y="523" width="224" height="32" rx="3" fill="white" stroke="#FF0000" stroke-width="2" stroke-linecap="round"/>
<text fill="#1E1E1E" text-anchor="middle" style="white-space: pre" xml:space="preserve" font-family="Inter" font-size="11" font-weight="500" letter-spacing="0em"><tspan x="465" y="543">Places plinth on table</tspan></text>
<rect x="353" y="575" width="224" height="32" rx="3" fill="white" stroke="#757575" stroke-width="2" stroke-linecap="round"/>
<text fill="#1E1E1E" text-anchor="middle" style="white-space: pre" xml:space="preserve" font-family="Inter" font-size="11" font-weight="500" letter-spacing="0em"><tspan x="465" y="595">Explores master plan independently</tspan></text>
<path d="M460.757 624.757C463.101 622.414 466.899 622.414 469.243 624.757L530.243 685.757C532.586 688.101 532.586 691.899 530.243 694.243L469.243 755.243C466.899 757.586 463.101 757.586 460.757 755.243L399.757 694.243C397.414 691.899 397.414 688.101 399.757 685.757L460.757 624.757Z" fill="white" stroke="#757575" stroke-width="2" stroke-linecap="round"/>
<text fill="#1E1E1E" text-anchor="middle" style="white-space: pre" xml:space="preserve" font-family="Inter" font-size="11" font-weight="500" letter-spacing="0em"><tspan x="465" y="685.5">Continues </tspan><tspan x="465" y="702.5">or Stops?</tspan></text>
<rect x="353" y="789" width="224" height="32" rx="3" fill="white" stroke="#757575" stroke-width="2" stroke-linecap="round"/>
<text fill="#1E1E1E" text-anchor="middle" style="white-space: pre" xml:space="preserve" font-family="Inter" font-size="11" font-weight="500" letter-spacing="0em"><tspan x="465" y="809">Solo session ends</tspan></text>
<rect x="193" y="859" width="224" height="28" rx="3" fill="white" stroke="#757575" stroke-width="2" stroke-linecap="round"/>
<text fill="#1E1E1E" text-anchor="middle" style="white-space: pre" xml:space="preserve" font-family="Inter" font-size="11" font-weight="500" letter-spacing="0em"><tspan x="305" y="877">Takes off headset &#38; compute pack</tspan></text>
<rect x="193" y="911" width="224" height="28" rx="3" fill="white" stroke="#757575" stroke-width="2" stroke-linecap="round"/>
<text fill="#1E1E1E" text-anchor="middle" style="white-space: pre" xml:space="preserve" font-family="Inter" font-size="11" font-weight="500" letter-spacing="0em"><tspan x="305" y="929">Returns controller</tspan></text>
<rect x="193" y="963" width="224" height="28" rx="3" fill="#815A00" stroke="#815A00" stroke-width="2" stroke-linecap="round"/>
<text fill="white" text-anchor="middle" style="white-space: pre" xml:space="preserve" font-family="Inter" font-size="11" font-weight="600" letter-spacing="0em"><tspan x="305" y="981">Presenter gives access to next visitor</tspan></text>
<path d="M304.293 157.207C304.683 157.598 305.317 157.598 305.707 157.207L312.071 150.843C312.462 150.453 312.462 149.819 312.071 149.429C311.681 149.038 311.047 149.038 310.657 149.429L305 155.086L299.343 149.429C298.953 149.038 298.319 149.038 297.929 149.429C297.538 149.819 297.538 150.453 297.929 150.843L304.293 157.207ZM305 145.5H304V156.5H305H306V145.5H305Z" fill="#757575"/>
<path d="M304.293 209.207C304.683 209.598 305.317 209.598 305.707 209.207L312.071 202.843C312.462 202.453 312.462 201.819 312.071 201.429C311.681 201.038 311.047 201.038 310.657 201.429L305 207.086L299.343 201.429C298.953 201.038 298.319 201.038 297.929 201.429C297.538 201.819 297.538 202.453 297.929 202.843L304.293 209.207ZM305 197.5H304V208.5H305H306V197.5H305Z" fill="#757575"/>
<path d="M304.293 261.207C304.683 261.598 305.317 261.598 305.707 261.207L312.071 254.843C312.462 254.453 312.462 253.819 312.071 253.429C311.681 253.038 311.047 253.038 310.657 253.429L305 259.086L299.343 253.429C298.953 253.038 298.319 253.038 297.929 253.429C297.538 253.819 297.538 254.453 297.929 254.843L304.293 261.207ZM305 249.5H304V260.5H305H306V249.5H305Z" fill="#757575"/>
<path d="M214.416 331C213.864 331 213.416 331.448 213.416 332C213.416 332.552 213.864 333 214.416 333V332V331ZM167.104 333C167.656 333 168.104 332.552 168.104 332C168.104 331.448 167.656 331 167.104 331V332V333ZM144.293 415.207C144.683 415.598 145.317 415.598 145.707 415.207L152.071 408.843C152.462 408.453 152.462 407.819 152.071 407.429C151.681 407.038 151.047 407.038 150.657 407.429L145 413.086L139.343 407.429C138.953 407.038 138.319 407.038 137.929 407.429C137.538 407.819 137.538 408.453 137.929 408.843L144.293 415.207ZM233.5 332V331H214.416V332V333H233.5V332ZM145 354.104H144V414.5H145H146V354.104H145ZM167.104 332V331C154.344 331 144 341.344 144 354.104H145H146C146 342.448 155.448 333 167.104 333V332Z" fill="#757575"/>
<text fill="black" fill-opacity="0.8" style="white-space: pre" xml:space="preserve" font-family="Inter" font-size="11" font-weight="500" letter-spacing="-0.011em"><tspan x="172.408" y="336">Shared</tspan></text>
<path d="M144.293 467.207C144.683 467.598 145.317 467.598 145.707 467.207L152.071 460.843C152.462 460.453 152.462 459.819 152.071 459.429C151.681 459.038 151.047 459.038 150.657 459.429L145 465.086L139.343 459.429C138.953 459.038 138.319 459.038 137.929 459.429C137.538 459.819 137.538 460.453 137.929 460.843L144.293 467.207ZM145 455.5H144V466.5H145H146V455.5H145Z" fill="#757575"/>
<path d="M144.293 519.207C144.683 519.598 145.317 519.598 145.707 519.207L152.071 512.843C152.462 512.453 152.462 511.819 152.071 511.429C151.681 511.038 151.047 511.038 150.657 511.429L145 517.086L139.343 511.429C138.953 511.038 138.319 511.038 137.929 511.429C137.538 511.819 137.538 512.453 137.929 512.843L144.293 519.207ZM145 507.5H144V518.5H145H146V507.5H145Z" fill="#757575"/>
<path d="M74.2071 690.707C74.5976 690.317 74.5976 689.683 74.2071 689.293L67.8431 682.929C67.4526 682.538 66.8194 682.538 66.4289 682.929C66.0384 683.319 66.0384 683.953 66.4289 684.343L72.0857 690L66.4289 695.657C66.0384 696.047 66.0384 696.681 66.4289 697.071C66.8194 697.462 67.4526 697.462 67.8431 697.071L74.2071 690.707ZM53.3892 559.5H52.3892V669.889H53.3892H54.3892V559.5H53.3892ZM53.3892 669.889H52.3892C52.3892 681.548 61.8408 691 73.5 691V690V689C62.9454 689 54.3892 680.444 54.3892 669.889H53.3892Z" fill="#757575"/>
<path d="M234.21 638.406C234.21 637.854 233.762 637.406 233.21 637.406C232.657 637.406 232.21 637.854 232.21 638.406H233.21H234.21ZM232.21 611.094C232.21 611.646 232.657 612.094 233.21 612.094C233.762 612.094 234.21 611.646 234.21 611.094H233.21H232.21ZM233.917 558.793C233.526 558.402 232.893 558.402 232.502 558.793L226.138 565.157C225.748 565.547 225.748 566.181 226.138 566.571C226.529 566.962 227.162 566.962 227.553 566.571L233.21 560.914L238.866 566.571C239.257 566.962 239.89 566.962 240.281 566.571C240.671 566.181 240.671 565.547 240.281 565.157L233.917 558.793ZM233.21 673.29H234.21V638.406H233.21H232.21V673.29H233.21ZM233.21 611.094H234.21V559.5H233.21H232.21V611.094H233.21ZM216.5 690V691C226.281 691 234.21 683.071 234.21 673.29H233.21H232.21C232.21 681.967 225.176 689 216.5 689V690Z" fill="#757575"/>
<text fill="black" fill-opacity="0.8" style="white-space: pre" xml:space="preserve" font-family="Inter" font-size="11" font-weight="500" letter-spacing="-0.011em"><tspan x="206.897" y="628.75">Continues</tspan></text>
<text fill="black" fill-opacity="0.8" style="white-space: pre" xml:space="preserve" font-family="Inter" font-size="11" font-weight="500" letter-spacing="-0.011em"><tspan x="130.031" y="777">Stops</tspan></text>
<path d="M402.579 333C403.132 333 403.579 332.552 403.579 332C403.579 331.448 403.132 331 402.579 331V332V333ZM435.892 331C435.339 331 434.892 331.448 434.892 332C434.892 332.552 435.339 333 435.892 333V332V331ZM464.293 415.207C464.683 415.598 465.317 415.598 465.707 415.207L472.071 408.843C472.462 408.453 472.462 407.819 472.071 407.429C471.681 407.038 471.047 407.038 470.657 407.429L465 413.086L459.343 407.429C458.953 407.038 458.319 407.038 457.929 407.429C457.538 407.819 457.538 408.453 457.929 408.843L464.293 415.207ZM376.5 332V333H402.579V332V331H376.5V332ZM435.892 332V333H441V332V331H435.892V332ZM465 356H464V414.5H465H466V356H465ZM441 332V333C453.703 333 464 343.297 464 356H465H466C466 342.193 454.807 331 441 331V332Z" fill="#757575"/>
<text fill="black" fill-opacity="0.8" style="white-space: pre" xml:space="preserve" font-family="Inter" font-size="11" font-weight="500" letter-spacing="-0.011em"><tspan x="407.88" y="336">Solo</tspan></text>
<path d="M464.293 467.207C464.683 467.598 465.317 467.598 465.707 467.207L472.071 460.843C472.462 460.453 472.462 459.819 472.071 459.429C471.681 459.038 471.047 459.038 470.657 459.429L465 465.086L459.343 459.429C458.953 459.038 458.319 459.038 457.929 459.429C457.538 459.819 457.538 460.453 457.929 460.843L464.293 467.207ZM465 455.5H464V466.5H465H466V455.5H465Z" fill="#757575"/>
<path d="M464.293 519.207C464.683 519.598 465.317 519.598 465.707 519.207L472.071 512.843C472.462 512.453 472.462 511.819 472.071 511.429C471.681 511.038 471.047 511.038 470.657 511.429L465 517.086L459.343 511.429C458.953 511.038 458.319 511.038 457.929 511.429C457.538 511.819 457.538 512.453 457.929 512.843L464.293 519.207ZM465 507.5H464V518.5H465H466V507.5H465Z" fill="#757575"/>
<path d="M464.293 571.207C464.683 571.598 465.317 571.598 465.707 571.207L472.071 564.843C472.462 564.453 472.462 563.819 472.071 563.429C471.681 563.038 471.047 563.038 470.657 563.429L465 569.086L459.343 563.429C458.953 563.038 458.319 563.038 457.929 563.429C457.538 563.819 457.538 564.453 457.929 564.843L464.293 571.207ZM465 559.5H464V570.5H465H466V559.5H465Z" fill="#757575"/>
<path d="M394.207 690.707C394.598 690.317 394.598 689.683 394.207 689.293L387.843 682.929C387.453 682.538 386.819 682.538 386.429 682.929C386.038 683.319 386.038 683.953 386.429 684.343L392.086 690L386.429 695.657C386.038 696.047 386.038 696.681 386.429 697.071C386.819 697.462 387.453 697.462 387.843 697.071L394.207 690.707ZM375.141 611.5H374.141V671.641H375.141H376.141V611.5H375.141ZM375.141 671.641H374.141C374.141 682.333 382.809 691 393.5 691V690V689C383.913 689 376.141 681.228 376.141 671.641H375.141Z" fill="#757575"/>
<path d="M557.637 664.406C557.637 663.854 557.19 663.406 556.637 663.406C556.085 663.406 555.637 663.854 555.637 664.406H556.637H557.637ZM555.637 637.094C555.637 637.646 556.085 638.094 556.637 638.094C557.19 638.094 557.637 637.646 557.637 637.094H556.637H555.637ZM557.345 610.793C556.954 610.402 556.321 610.402 555.93 610.793L549.566 617.157C549.176 617.547 549.176 618.181 549.566 618.571C549.957 618.962 550.59 618.962 550.981 618.571L556.637 612.914L562.294 618.571C562.685 618.962 563.318 618.962 563.708 618.571C564.099 618.181 564.099 617.547 563.708 617.157L557.345 610.793ZM556.637 669.863H557.637V664.406H556.637H555.637V669.863H556.637ZM556.637 637.094H557.637V611.5H556.637H555.637V637.094H556.637ZM536.5 690V691C548.174 691 557.637 681.536 557.637 669.863H556.637H555.637C555.637 680.432 547.069 689 536.5 689V690Z" fill="#757575"/>
<text fill="black" fill-opacity="0.8" style="white-space: pre" xml:space="preserve" font-family="Inter" font-size="11" font-weight="500" letter-spacing="-0.011em"><tspan x="530.325" y="654.75">Continues</tspan></text>
<text fill="black" fill-opacity="0.8" style="white-space: pre" xml:space="preserve" font-family="Inter" font-size="11" font-weight="500" letter-spacing="-0.011em"><tspan x="450.031" y="777">Stops</tspan></text>
<path d="M266.96 855.207C267.35 855.598 267.983 855.598 268.374 855.207L274.738 848.843C275.128 848.453 275.128 847.819 274.738 847.429C274.347 847.038 273.714 847.038 273.324 847.429L267.667 853.086L262.01 847.429C261.619 847.038 260.986 847.038 260.596 847.429C260.205 847.819 260.205 848.453 260.596 848.843L266.96 855.207ZM154.5 835V836H248.167V835V834H154.5V835ZM248.167 835V836C258.384 836 266.667 844.283 266.667 854.5H267.667H268.667C268.667 843.178 259.489 834 248.167 834V835ZM145 825.5H144C144 831.299 148.701 836 154.5 836V835V834C149.806 834 146 830.194 146 825.5H145Z" fill="#757575"/>
<path d="M341.626 855.207C342.017 855.598 342.65 855.598 343.04 855.207L349.404 848.843C349.795 848.453 349.795 847.819 349.404 847.429C349.014 847.038 348.381 847.038 347.99 847.429L342.333 853.086L336.676 847.429C336.286 847.038 335.653 847.038 335.262 847.429C334.872 847.819 334.872 848.453 335.262 848.843L341.626 855.207ZM455.5 835V834H361.833V835V836H455.5V835ZM361.833 835V834C350.511 834 341.333 843.178 341.333 854.5H342.333H343.333C343.333 844.283 351.616 836 361.833 836V835ZM465 825.5H464C464 830.194 460.194 834 455.5 834V835V836C461.299 836 466 831.299 466 825.5H465Z" fill="#757575"/>
<path d="M304.293 907.207C304.683 907.598 305.317 907.598 305.707 907.207L312.071 900.843C312.462 900.453 312.462 899.819 312.071 899.429C311.681 899.038 311.047 899.038 310.657 899.429L305 905.086L299.343 899.429C298.953 899.038 298.319 899.038 297.929 899.429C297.538 899.819 297.538 900.453 297.929 900.843L304.293 907.207ZM305 891.5H304V906.5H305H306V891.5H305Z" fill="#757575"/>
<path d="M304.293 959.207C304.683 959.598 305.317 959.598 305.707 959.207L312.071 952.843C312.462 952.453 312.462 951.819 312.071 951.429C311.681 951.038 311.047 951.038 310.657 951.429L305 957.086L299.343 951.429C298.953 951.038 298.319 951.038 297.929 951.429C297.538 951.819 297.538 952.453 297.929 952.843L304.293 959.207ZM305 943.5H304V958.5H305H306V943.5H305Z" fill="#757575"/>
<text fill="black" text-anchor="middle" style="white-space: pre" xml:space="preserve" font-family="Inter" font-size="24" font-weight="bold" letter-spacing="0em"><tspan x="305" y="63.7273">INITIAL PLAN</tspan></text>
</svg>
