<svg width="313" height="1053" viewBox="0 0 313 1053" fill="none" xmlns="http://www.w3.org/2000/svg">
<rect width="313" height="1053" fill="white"/>
<rect x="35" y="110" width="242" height="30" rx="3" fill="#815A00" stroke="#815A00" stroke-width="4" stroke-linecap="round"/>
<text fill="white" text-anchor="middle" style="white-space: pre" xml:space="preserve" font-family="Inter" font-size="11" font-weight="600" letter-spacing="0em"><tspan x="156" y="129">Locks device to app &#38; calibrates headsets</tspan></text>
<rect x="35" y="162" width="242" height="29" rx="3" fill="white" stroke="#757575" stroke-width="2" stroke-linecap="round"/>
<text fill="#1E1E1E" text-anchor="middle" style="white-space: pre" xml:space="preserve" font-family="Inter" font-size="11" font-weight="500" letter-spacing="0em"><tspan x="156" y="181">Approaches AR table</tspan></text>
<rect x="35" y="214" width="242" height="29" rx="3" fill="#815A00" stroke="#815A00" stroke-width="4" stroke-linecap="round"/>
<text fill="white" text-anchor="middle" style="white-space: pre" xml:space="preserve" font-family="Inter" font-size="11" font-weight="600" letter-spacing="0em"><tspan x="156" y="233">Assigns headset &#38; compute pack</tspan></text>
<rect x="35" y="266" width="242" height="29" rx="3" fill="white" stroke="#757575" stroke-width="2" stroke-linecap="round"/>
<text fill="#1E1E1E" text-anchor="middle" style="white-space: pre" xml:space="preserve" font-family="Inter" font-size="11" font-weight="500" letter-spacing="0em"><tspan x="156" y="285">Puts on headset</tspan></text>
<rect x="35" y="318" width="242" height="29" rx="3" fill="#815A00" stroke="#815A00" stroke-width="4" stroke-linecap="round"/>
<text fill="white" text-anchor="middle" style="white-space: pre" xml:space="preserve" font-family="Inter" font-size="11" font-weight="600" letter-spacing="0em"><tspan x="156" y="337">Enters hidden presenter mode</tspan></text>
<rect x="35" y="370" width="242" height="29" rx="3" fill="white" stroke="#757575" stroke-width="2" stroke-linecap="round"/>
<text fill="#1E1E1E" text-anchor="middle" style="white-space: pre" xml:space="preserve" font-family="Inter" font-size="11" font-weight="500" letter-spacing="0em"><tspan x="156" y="389">Follows onboarding &#38; controls tutorial</tspan></text>
<rect x="35" y="422" width="242" height="30" rx="3" fill="#815A00" stroke="#815A00" stroke-width="4" stroke-linecap="round"/>
<text fill="white" text-anchor="middle" style="white-space: pre" xml:space="preserve" font-family="Inter" font-size="11" font-weight="600" letter-spacing="0em"><tspan x="156" y="441">Leads experience layer by layer</tspan></text>
<path d="M151.757 470.757C154.101 468.414 157.899 468.414 160.243 470.757L221.243 531.757C223.586 534.101 223.586 537.899 221.243 540.243L160.243 601.243C157.899 603.586 154.101 603.586 151.757 601.243L90.7574 540.243C88.4142 537.899 88.4142 534.101 90.7574 531.757L151.757 470.757Z" fill="white" stroke="#757575" stroke-width="2" stroke-linecap="round"/>
<text fill="#1E1E1E" text-anchor="middle" style="white-space: pre" xml:space="preserve" font-family="Inter" font-size="11" font-weight="500" letter-spacing="0em"><tspan x="156" y="531.5">Continues </tspan><tspan x="156" y="548.5">or Stops?</tspan></text>
<rect x="35" y="636" width="242" height="29" rx="3" fill="white" stroke="#757575" stroke-width="2" stroke-linecap="round"/>
<text fill="#1E1E1E" text-anchor="middle" style="white-space: pre" xml:space="preserve" font-family="Inter" font-size="11" font-weight="500" letter-spacing="0em"><tspan x="156" y="655">Takes off headset &#38; compute pack</tspan></text>
<rect x="35" y="688" width="242" height="29" rx="3" fill="white" stroke="#757575" stroke-width="2" stroke-linecap="round"/>
<text fill="#1E1E1E" text-anchor="middle" style="white-space: pre" xml:space="preserve" font-family="Inter" font-size="11" font-weight="500" letter-spacing="0em"><tspan x="156" y="707">Returns controller</tspan></text>
<rect x="35" y="740" width="242" height="30" rx="3" fill="#815A00" stroke="#815A00" stroke-width="4" stroke-linecap="round"/>
<text fill="white" text-anchor="middle" style="white-space: pre" xml:space="preserve" font-family="Inter" font-size="11" font-weight="600" letter-spacing="0em"><tspan x="156" y="759">Gives access to next visitor</tspan></text>
<path d="M155.293 158.207C155.683 158.598 156.317 158.598 156.707 158.207L163.071 151.843C163.462 151.453 163.462 150.819 163.071 150.429C162.681 150.038 162.047 150.038 161.657 150.429L156 156.086L150.343 150.429C149.953 150.038 149.319 150.038 148.929 150.429C148.538 150.819 148.538 151.453 148.929 151.843L155.293 158.207ZM156 145.5H155V157.5H156H157V145.5H156Z" fill="#757575"/>
<path d="M155.293 209.207C155.683 209.598 156.317 209.598 156.707 209.207L163.071 202.843C163.462 202.453 163.462 201.819 163.071 201.429C162.681 201.038 162.047 201.038 161.657 201.429L156 207.086L150.343 201.429C149.953 201.038 149.319 201.038 148.929 201.429C148.538 201.819 148.538 202.453 148.929 202.843L155.293 209.207ZM156 195.5H155V208.5H156H157V195.5H156Z" fill="#757575"/>
<path d="M155.293 262.207C155.683 262.598 156.317 262.598 156.707 262.207L163.071 255.843C163.462 255.453 163.462 254.819 163.071 254.429C162.681 254.038 162.047 254.038 161.657 254.429L156 260.086L150.343 254.429C149.953 254.038 149.319 254.038 148.929 254.429C148.538 254.819 148.538 255.453 148.929 255.843L155.293 262.207ZM156 248.5H155V261.5H156H157V248.5H156Z" fill="#757575"/>
<path d="M155.293 313.207C155.683 313.598 156.317 313.598 156.707 313.207L163.071 306.843C163.462 306.453 163.462 305.819 163.071 305.429C162.681 305.038 162.047 305.038 161.657 305.429L156 311.086L150.343 305.429C149.953 305.038 149.319 305.038 148.929 305.429C148.538 305.819 148.538 306.453 148.929 306.843L155.293 313.207ZM156 299.5H155V312.5H156H157V299.5H156Z" fill="#757575"/>
<path d="M155.293 366.207C155.683 366.598 156.317 366.598 156.707 366.207L163.071 359.843C163.462 359.453 163.462 358.819 163.071 358.429C162.681 358.038 162.047 358.038 161.657 358.429L156 364.086L150.343 358.429C149.953 358.038 149.319 358.038 148.929 358.429C148.538 358.819 148.538 359.453 148.929 359.843L155.293 366.207ZM156 352.5H155V365.5H156H157V352.5H156Z" fill="#757575"/>
<path d="M155.293 417.207C155.683 417.598 156.317 417.598 156.707 417.207L163.071 410.843C163.462 410.453 163.462 409.819 163.071 409.429C162.681 409.038 162.047 409.038 161.657 409.429L156 415.086L150.343 409.429C149.953 409.038 149.319 409.038 148.929 409.429C148.538 409.819 148.538 410.453 148.929 410.843L155.293 417.207ZM156 403.5H155V416.5H156H157V403.5H156Z" fill="#757575"/>
<path d="M85.2071 536.707C85.5976 536.317 85.5976 535.683 85.2071 535.293L78.8431 528.929C78.4526 528.538 77.8195 528.538 77.4289 528.929C77.0384 529.319 77.0384 529.953 77.4289 530.343L83.0858 536L77.4289 541.657C77.0384 542.047 77.0384 542.681 77.4289 543.071C77.8195 543.462 78.4526 543.462 78.8431 543.071L85.2071 536.707ZM64.0825 457.5H63.0825V499.959H64.0825H65.0825V457.5H64.0825ZM64 500.041H63V518H64H65V500.041H64ZM82 536V537H84.5V536V535H82V536ZM64 518H63C63 528.493 71.5066 537 82 537V536V535C72.6112 535 65 527.389 65 518H64ZM64.0412 500V499C63.4662 499 63 499.466 63 500.041H64H65C65 500.571 64.5708 501 64.0412 501V500ZM64.0825 499.959H63.0825C63.0825 499.429 63.5118 499 64.0412 499V500V501C64.6163 501 65.0825 500.534 65.0825 499.959H64.0825Z" fill="#757575"/>
<path d="M237.093 510.406C237.093 509.854 236.646 509.406 236.093 509.406C235.541 509.406 235.093 509.854 235.093 510.406H236.093H237.093ZM235.093 483.094C235.093 483.646 235.541 484.094 236.093 484.094C236.646 484.094 237.093 483.646 237.093 483.094H236.093H235.093ZM236.8 456.793C236.41 456.402 235.777 456.402 235.386 456.793L229.022 463.157C228.632 463.547 228.632 464.181 229.022 464.571C229.413 464.962 230.046 464.962 230.436 464.571L236.093 458.914L241.75 464.571C242.141 464.962 242.774 464.962 243.164 464.571C243.555 464.181 243.555 463.547 243.164 463.157L236.8 456.793ZM236.093 527.407H237.093V510.406H236.093H235.093V527.407H236.093ZM236.093 483.094H237.093V457.5H236.093H235.093V483.094H236.093ZM227.5 536V537C232.798 537 237.093 532.705 237.093 527.407H236.093H235.093C235.093 531.6 231.694 535 227.5 535V536Z" fill="#757575"/>
<text fill="black" fill-opacity="0.8" style="white-space: pre" xml:space="preserve" font-family="Inter" font-size="11" font-weight="500" letter-spacing="-0.011em"><tspan x="209.781" y="500.75">Continues</tspan></text>
<text fill="black" fill-opacity="0.8" style="white-space: pre" xml:space="preserve" font-family="Inter" font-size="11" font-weight="500" letter-spacing="-0.011em"><tspan x="141.031" y="623.5">Stops</tspan></text>
<path d="M155.293 684.207C155.683 684.598 156.317 684.598 156.707 684.207L163.071 677.843C163.462 677.453 163.462 676.819 163.071 676.429C162.681 676.038 162.047 676.038 161.657 676.429L156 682.086L150.343 676.429C149.953 676.038 149.319 676.038 148.929 676.429C148.538 676.819 148.538 677.453 148.929 677.843L155.293 684.207ZM156 669.5H155V683.5H156H157V669.5H156Z" fill="#757575"/>
<path d="M155.293 735.207C155.683 735.598 156.317 735.598 156.707 735.207L163.071 728.843C163.462 728.453 163.462 727.819 163.071 727.429C162.681 727.038 162.047 727.038 161.657 727.429L156 733.086L150.343 727.429C149.953 727.038 149.319 727.038 148.929 727.429C148.538 727.819 148.538 728.453 148.929 728.843L155.293 735.207ZM156 721.5H155V734.5H156H157V721.5H156Z" fill="#757575"/>
<text fill="black" text-anchor="middle" style="white-space: pre" xml:space="preserve" font-family="Inter" font-size="24" font-weight="bold" letter-spacing="0em"><tspan x="156" y="63.7273">SHIPPED PRODUCT</tspan></text>
<rect x="33" y="866" width="247" height="116.627" rx="15" stroke="#757575" stroke-width="2"/>
<rect x="54" y="885" width="16" height="16" rx="2" fill="#757575"/>
<text fill="black" style="white-space: pre" xml:space="preserve" font-family="Inter" font-size="11" font-weight="bold" letter-spacing="0em"><tspan x="82" y="897">Actions</tspan></text>
<rect x="62.3137" y="913" width="16" height="16" rx="2" transform="rotate(45 62.3137 913)" fill="#757575"/>
<text fill="black" style="white-space: pre" xml:space="preserve" font-family="Inter" font-size="11" font-weight="bold" letter-spacing="0em"><tspan x="82.6274" y="928.313">Decisions</tspan></text>
<path d="M61.2929 966.334C61.6834 966.725 62.3166 966.725 62.7071 966.334L69.0711 959.97C69.4616 959.58 69.4616 958.946 69.0711 958.556C68.6805 958.165 68.0474 958.165 67.6569 958.556L62 964.213L56.3431 958.556C55.9526 958.165 55.3195 958.165 54.9289 958.556C54.5384 958.946 54.5384 959.58 54.9289 959.97L61.2929 966.334ZM62 945.627H61V965.627H62H63V945.627H62Z" fill="#757575"/>
<text fill="black" style="white-space: pre" xml:space="preserve" font-family="Inter" font-size="11" font-weight="bold" letter-spacing="0em"><tspan x="82" y="959.627">Main path</tspan></text>
<rect x="174" y="885" width="16" height="16" rx="8" fill="white" stroke="#757575" stroke-width="2" stroke-linecap="round"/>
<text fill="black" style="white-space: pre" xml:space="preserve" font-family="Inter" font-size="11" font-weight="bold" letter-spacing="0em"><tspan x="202" y="897">Participant</tspan></text>
<rect x="174" y="913" width="16" height="16" rx="8" fill="#815A00" stroke="#815A00" stroke-width="2" stroke-linecap="round"/>
<text fill="black" style="white-space: pre" xml:space="preserve" font-family="Inter" font-size="11" font-weight="bold" letter-spacing="0em"><tspan x="202" y="925">Presenter</tspan></text>
<rect x="174" y="941" width="16" height="16" rx="8" fill="white" stroke="#FF0000" stroke-width="2" stroke-linecap="round"/>
<text fill="black" style="white-space: pre" xml:space="preserve" font-family="Inter" font-size="11" font-weight="bold" letter-spacing="0em"><tspan x="202" y="953">Friction</tspan></text>
</svg>
