<svg width="80" height="80" viewBox="0 0 80 80" fill="none" xmlns="http://www.w3.org/2000/svg">
<path fill-rule="evenodd" clip-rule="evenodd" d="M37.0542 36.561C34.4617 35.0643 31.2211 36.9353 31.221 39.9288L31.2205 56.7693C31.2204 59.763 34.4612 61.6342 37.0538 60.1373L51.6389 51.7166C54.2315 50.2197 54.2315 46.4776 51.6388 44.9808L37.0542 36.561Z" fill="#1F1F1F"/>
<path d="M57.9609 20.5557H71.1133V26.8057H8.89062V20.5557H27.6377L22.332 9.94434L27.9219 7.14941L34.625 20.5557H50.9736L45.668 9.94434L51.2578 7.14941L57.9609 20.5557Z" fill="#1F1F1F"/>
<mask id="path-4-inside-1_977_150697" fill="white">
<path d="M5 29C5 15.7452 15.7452 5 29 5H51C64.2548 5 75 15.7452 75 29V51C75 64.2548 64.2548 75 51 75H29C15.7452 75 5 64.2548 5 51V29Z"/>
</mask>
<path d="M29 5V12H51V5V-2H29V5ZM75 29H68V51H75H82V29H75ZM51 75V68H29V75V82H51V75ZM5 51H12V29H5H-2V51H5ZM29 75V68C19.6112 68 12 60.3888 12 51H5H-2C-2 68.1208 11.8792 82 29 82V75ZM75 51H68C68 60.3888 60.3888 68 51 68V75V82C68.1208 82 82 68.1208 82 51H75ZM51 5V12C60.3888 12 68 19.6112 68 29H75H82C82 11.8792 68.1208 -2 51 -2V5ZM29 5V-2C11.8792 -2 -2 11.8792 -2 29H5H12C12 19.6112 19.6112 12 29 12V5Z" fill="#1F1F1F" mask="url(#path-4-inside-1_977_150697)"/>
</svg>
