<svg width="80" height="80" viewBox="0 0 80 80" fill="none" xmlns="http://www.w3.org/2000/svg">
<path d="M24.8767 15.9317C26.7708 15.2423 28.8647 16.2189 29.5542 18.1128L39.0727 44.2646C39.2615 44.7833 39.8356 45.0508 40.3544 44.8622L40.8169 44.6939C41.3388 44.5038 41.6061 43.9253 41.4137 43.4042C40.2863 40.3505 38.6198 35.7109 38.3507 34.9716C37.7219 33.244 36.9013 31.1938 38.7619 30.5163C40.4663 29.896 44.6344 30.3074 46.1973 34.6015L48.4726 40.8526C48.6604 41.3686 49.2292 41.6355 49.7466 41.452L50.2178 41.2847C50.7413 41.099 51.0128 40.5223 50.8228 40.0003L48.8923 34.6962C48.5157 33.6616 47.4298 31.2071 49.502 30.4524C51.5762 29.6975 55.4981 30.9178 56.8635 34.6684L57.8735 37.4434C58.0624 37.9621 58.6364 38.2296 59.1552 38.0411L59.6388 37.8651C60.1525 37.6781 60.4216 37.1123 60.2375 36.5976C59.831 35.4607 59.5661 34.7842 59.4439 34.4484C58.9363 33.0538 58.0411 31.3821 59.7579 30.757C61.7402 30.0355 66.4566 31.7873 67.9538 35.9008L73.5978 51.4075C79.887 68.6873 54.3458 80.4596 46.1978 74.7137C43.7343 72.9764 29.1854 63.0271 20.8052 57.3909C19.2924 56.3735 18.8802 54.3309 19.8795 52.806C20.7805 51.4315 22.5521 50.924 24.0446 51.6122L33.8041 56.1121C34.6111 56.484 35.4662 55.6972 35.1626 54.8621L22.6955 20.6092C22.0063 18.7152 22.9828 16.6211 24.8767 15.9317Z" fill="#1F1F1F"/>
<path d="M20.9954 5.48773C29.5624 2.36959 40.5996 7.93207 41.5129 20.0206C41.6166 21.3972 40.5843 22.5972 39.2076 22.7012C37.8311 22.8048 36.6314 21.7734 36.5274 20.3969C35.8684 11.6734 28.2189 8.17948 22.7055 10.1862C19.8892 11.2114 17.4734 13.6021 16.444 16.6076C15.4458 19.5223 15.7021 23.1646 18.5012 26.908C19.3281 28.0137 19.1026 29.5809 17.9969 30.4077C16.8911 31.2345 15.3245 31.0079 14.4977 29.9022C10.7478 24.8875 10.1597 19.5271 11.7142 14.9879C13.2377 10.5396 16.7718 7.02512 20.9954 5.48773Z" fill="#1F1F1F"/>
</svg>
