<svg width="80" height="80" viewBox="0 0 80 80" fill="none" xmlns="http://www.w3.org/2000/svg">
<path d="M41.1789 45.1369C40.0769 42.6324 42.6285 40.0808 45.133 41.1828L71.2346 52.6672C73.9243 53.8506 73.4849 57.7948 70.6008 58.3576L62.3371 59.9699C61.1384 60.2038 60.2009 61.1413 59.967 62.34L58.3547 70.6047C57.7919 73.4886 53.8479 73.9276 52.6643 71.2385L41.1789 45.1369ZM52.3264 5.36933C54.1788 3.51686 57.1829 3.51686 59.0353 5.36933C60.8878 7.22181 60.8878 10.2258 59.0353 12.0783C57.4729 13.6407 55.0915 13.8848 53.2727 12.8117L41.5353 24.548C46.6509 21.3992 52.2349 19.2587 58.0012 18.3879C58.0036 18.3035 58.0076 18.2105 58.0148 18.1193C58.0376 17.8307 58.105 17.271 58.4084 16.6516C58.8021 15.848 59.4525 15.1985 60.2561 14.8049C60.8755 14.5014 61.4352 14.4332 61.7238 14.4103C61.9512 14.3924 62.1884 14.3935 62.2824 14.3937H65.5725C65.6666 14.3935 65.9037 14.3924 66.1311 14.4103C66.4198 14.4332 66.9795 14.5015 67.5988 14.8049C68.4022 15.1986 69.0519 15.8481 69.4455 16.6516C69.749 17.271 69.8163 17.8307 69.8391 18.1193C69.857 18.3469 69.8569 18.584 69.8566 18.6779V21.968C69.8569 22.062 69.857 22.299 69.8391 22.5266C69.8163 22.8152 69.749 23.3749 69.4455 23.9943C69.0519 24.7977 68.4022 25.4474 67.5988 25.841C66.9795 26.1444 66.4198 26.2127 66.1311 26.2355C65.9037 26.2535 65.6666 26.2524 65.5725 26.2521H62.2824C62.1885 26.2524 61.9513 26.2535 61.7238 26.2355C61.4352 26.2127 60.8755 26.1445 60.2561 25.841C59.4525 25.4473 58.8021 24.7979 58.4084 23.9943C58.264 23.6995 58.1736 23.418 58.1154 23.173C51.8886 24.2232 45.8214 26.9673 40.424 31.05C40.7715 33.5404 39.9895 36.1584 38.0744 38.0734C36.1593 39.9885 33.5414 40.7696 31.051 40.4221C26.9676 45.82 24.2233 51.8879 23.173 58.1154C23.4178 58.1736 23.6987 58.2651 23.9934 58.4094C24.7969 58.803 25.4473 59.4525 25.841 60.2561C26.1445 60.8755 26.2118 61.4352 26.2346 61.7238C26.2525 61.9514 26.2524 62.1884 26.2521 62.2824V65.5725C26.2524 65.6664 26.2525 65.9035 26.2346 66.1311C26.2118 66.4197 26.1445 66.9794 25.841 67.5988C25.4473 68.4024 24.7969 69.0518 23.9934 69.4455C23.3742 69.7488 22.8153 69.8172 22.5266 69.84C22.2993 69.858 22.0622 69.8569 21.968 69.8566H18.6779C18.584 69.8569 18.3468 69.858 18.1193 69.84C17.8307 69.8172 17.271 69.7489 16.6516 69.4455C15.848 69.0518 15.1976 68.4024 14.8039 67.5988C14.5005 66.9794 14.4332 66.4197 14.4103 66.1311C14.3924 65.9035 14.3925 65.6664 14.3928 65.5725V62.2824C14.3925 62.1884 14.3924 61.9514 14.4103 61.7238C14.4332 61.4352 14.5004 60.8755 14.8039 60.2561C15.1976 59.4525 15.848 58.803 16.6516 58.4094C17.271 58.106 17.8307 58.0376 18.1193 58.0148C18.2106 58.0076 18.3035 58.0036 18.3879 58.0012C19.2593 52.2307 21.4033 46.6433 24.5559 41.5246L12.8107 53.2717C13.8852 55.0907 13.6413 57.4733 12.0783 59.0363C10.2258 60.8888 7.22181 60.8888 5.36933 59.0363C3.51686 57.1839 3.51686 54.1798 5.36933 52.3273C6.93198 50.7647 9.31408 50.5203 11.133 51.5939L25.5539 37.173C23.1179 33.9217 23.3777 29.2897 26.3342 26.3332C29.2912 23.3762 33.9245 23.1165 37.176 25.5539L51.5949 11.1359C50.5194 9.31666 50.7629 6.93278 52.3264 5.36933ZM18.7004 61.5559C18.4437 61.5559 18.3148 61.5553 18.216 61.6037C18.1216 61.65 18.0455 61.727 17.9992 61.8215C17.9509 61.9202 17.9504 62.0484 17.9504 62.3049V65.55C17.9504 65.8065 17.9509 65.9347 17.9992 66.0334C18.0455 66.1279 18.1216 66.2048 18.216 66.2512C18.3148 66.2995 18.4437 66.299 18.7004 66.299H21.9445C22.2012 66.299 22.3302 66.2995 22.4289 66.2512C22.5234 66.2049 22.5994 66.1279 22.6457 66.0334C22.694 65.9347 22.6945 65.8065 22.6945 65.55V62.3049C22.6945 62.0484 22.6941 61.9202 22.6457 61.8215C22.5994 61.727 22.5234 61.65 22.4289 61.6037C22.3302 61.5553 22.2012 61.5559 21.9445 61.5559H18.7004ZM35.4592 28.7531C33.6002 26.9976 30.6696 27.029 28.8498 28.8488C26.9974 30.7013 26.9974 33.7053 28.8498 35.5578C30.7023 37.4103 33.7063 37.4103 35.5588 35.5578C37.3786 33.738 37.41 30.8074 35.6545 28.9484L35.4592 28.7531ZM62.3049 17.9514C62.0485 17.9514 61.9202 17.9511 61.8215 17.9992C61.7269 18.0455 61.65 18.1225 61.6037 18.217C61.5554 18.3157 61.5559 18.444 61.5559 18.7004V21.9455C61.5559 22.2019 61.5554 22.3302 61.6037 22.4289C61.65 22.5234 61.7269 22.6004 61.8215 22.6467C61.9202 22.6948 62.0486 22.6945 62.3049 22.6945H65.549C65.8057 22.6945 65.9347 22.695 66.0334 22.6467C66.1279 22.6004 66.2039 22.5234 66.2502 22.4289C66.2985 22.3302 66.299 22.202 66.299 21.9455V18.7004C66.299 18.4438 66.2985 18.3157 66.2502 18.217C66.2039 18.1225 66.1279 18.0455 66.0334 17.9992C65.9347 17.9508 65.8057 17.9514 65.549 17.9514H62.3049Z" fill="#1F1F1F"/>
</svg>
