<svg width="80" height="80" viewBox="0 0 80 80" fill="none" xmlns="http://www.w3.org/2000/svg">
<path d="M13.1097 56.6111L16.1635 61.757L40 50.0542L63.8365 61.757L66.8903 56.6111L43.0538 44.9083V17.3115H36.9462V44.9083L13.1097 56.6111ZM5.39038 61.2175C4.41487 63.3755 5.30555 64.7449 7.63827 65.0354L21.5076 66.6124C24.8583 67.0274 26.8094 65.0354 25.028 62.0475L16.7149 48.0208C14.9759 45.0744 12.3038 45.6554 10.9465 48.6433L5.39038 61.2175ZM74.6096 61.2175L69.0534 48.6433C67.6962 45.6554 65.0241 45.0744 63.2851 48.0208L54.972 62.0475C53.1906 65.0354 55.1417 67.0274 58.4924 66.6124L72.3617 65.0354C74.6944 64.7449 75.5851 63.3755 74.6096 61.2175ZM37.7097 8.09871L29.3966 19.0544C27.3607 21.6689 28.209 24.3248 31.6869 24.3248H48.2283C51.8335 24.3248 52.5969 21.7104 50.561 19.0544L42.2055 8.09871C40.7634 6.18975 39.1517 6.18975 37.7097 8.09871Z" fill="#1F1F1F"/>
</svg>
