<svg width="80" height="80" viewBox="0 0 80 80" fill="none" xmlns="http://www.w3.org/2000/svg">
<path fill-rule="evenodd" clip-rule="evenodd" d="M30.6679 15.0833C30.6679 17.7296 28.5226 19.8749 25.8762 19.8749C23.2299 19.8749 21.0846 17.7296 21.0846 15.0833C21.0846 12.4369 23.2299 10.2916 25.8762 10.2916C28.5226 10.2916 30.6679 12.4369 30.6679 15.0833ZM35.4595 15.0833C35.4595 20.376 31.1689 24.6666 25.8762 24.6666C20.5835 24.6666 16.293 20.376 16.293 15.0833C16.293 9.79058 20.5835 5.5 25.8762 5.5C31.1689 5.5 35.4595 9.79058 35.4595 15.0833ZM72.2577 40.265C72.2577 42.9114 70.1124 45.0566 67.4661 45.0566C64.8197 45.0566 62.6744 42.9114 62.6744 40.265C62.6744 37.6187 64.8197 35.4734 67.4661 35.4734C70.1124 35.4734 72.2577 37.6187 72.2577 40.265ZM77.0494 40.265C77.0494 45.5577 72.7588 49.8483 67.4661 49.8483C62.1734 49.8483 57.8828 45.5577 57.8828 40.265C57.8828 34.9723 62.1734 30.6817 67.4661 30.6817C72.7588 30.6817 77.0494 34.9723 77.0494 40.265ZM24.3411 67.7911C26.9874 67.7911 29.1327 65.6458 29.1327 62.9994C29.1327 60.3531 26.9874 58.2078 24.3411 58.2078C21.6947 58.2078 19.5494 60.3531 19.5494 62.9994C19.5494 65.6458 21.6947 67.7911 24.3411 67.7911ZM24.3411 72.5827C29.6338 72.5827 33.9244 68.2921 33.9244 62.9994C33.9244 57.7067 29.6338 53.4162 24.3411 53.4162C19.0484 53.4162 14.7578 57.7067 14.7578 62.9994C14.7578 68.2921 19.0484 72.5827 24.3411 72.5827ZM44.4822 64.7634C44.8927 64.6718 45.2995 64.5706 45.7025 64.4601C47.8214 63.8762 49.9013 63.0156 51.8935 61.8654C52.6611 61.4223 53.398 60.9463 54.1033 60.4404C57.1459 58.2488 59.7022 55.4244 61.5794 52.1598C63.0618 52.8261 64.6775 53.2486 66.3755 53.376C66.1283 53.8521 65.8691 54.321 65.5984 54.7824C63.4596 58.4427 60.5489 61.7063 56.9383 64.3041C53.9449 66.4669 50.5517 68.1109 46.8908 69.1039C46.405 69.2364 45.9174 69.3565 45.4286 69.4645L47.3505 70.4903C48.5178 71.1134 48.959 72.5648 48.3359 73.7321C47.7129 74.8994 46.2615 75.3406 45.0942 74.7175L36.26 70.0022C35.5696 69.6336 35.1026 68.9511 35.0094 68.1741C34.9161 67.397 35.2083 66.6234 35.7919 66.1019L43.34 59.3584C44.3267 58.4769 45.8413 58.5622 46.7228 59.5489C47.6044 60.5356 47.5191 62.0502 46.5324 62.9317L44.4822 64.7634ZM55.4947 20.3266L58.0979 21.1836C56.3727 19.3123 54.38 17.6915 52.1804 16.3818C48.7561 14.3516 44.9142 13.1241 40.9653 12.7825C40.224 12.7199 39.474 12.6879 38.7166 12.6879L38.5179 12.6887C38.2331 10.9906 37.6506 9.39345 36.8259 7.95274C36.9855 7.94319 37.1453 7.93484 37.3055 7.92769L37.3032 7.92282C38.6808 7.86138 40.0567 7.89197 41.4217 8.01215C46.2033 8.42352 50.6762 9.91522 54.5951 12.242C57.2014 13.7829 59.6038 15.7169 61.7042 18.0178L61.6315 15.8388C61.5875 14.5164 62.6238 13.4086 63.9462 13.3645C65.2687 13.3205 66.3765 14.3568 66.4205 15.6792L66.754 25.6876C66.7801 26.4698 66.4225 27.2154 65.7961 27.6847C65.1698 28.154 64.3538 28.2877 63.6104 28.043L53.9963 24.878C52.7395 24.4642 52.056 23.1099 52.4698 21.8531C52.8836 20.5963 54.2378 19.9129 55.4947 20.3266ZM15.9941 52.3923L15.8935 52.2195C14.6418 50.0515 13.7331 47.7795 13.1507 45.4665C12.6356 43.4102 12.362 41.258 12.362 39.042C12.362 38.2921 12.3934 37.5495 12.4548 36.8155C12.6185 34.9044 12.9898 33.0181 13.5592 31.1921L14.1175 33.8696C14.3876 35.1649 15.6566 35.996 16.9519 35.7259C18.2472 35.4559 19.0783 34.1868 18.8082 32.8915L16.7422 22.983C16.5825 22.2168 16.0586 21.577 15.339 21.2692C14.6194 20.9614 13.7949 21.0245 13.1305 21.4382L4.6298 26.7312C3.50656 27.4306 3.16297 28.9081 3.86235 30.0313C4.56173 31.1546 6.03926 31.4982 7.16249 30.7988L9.01236 29.6469C8.33084 31.8036 7.87772 34.0618 7.68138 36.393C7.38852 39.7879 7.64972 43.2495 8.50284 46.6366C9.28339 49.7516 10.5331 52.6806 12.1724 55.3441L12.1751 55.34C12.3588 55.6395 12.5468 55.9349 12.739 56.226C13.5742 54.7914 14.666 53.4882 15.9941 52.3923Z" fill="#1F1F1F"/>
</svg>
