<svg width="80" height="80" viewBox="0 0 80 80" fill="none" xmlns="http://www.w3.org/2000/svg">
<path fill-rule="evenodd" clip-rule="evenodd" d="M64.36 10C61.7974 10 59.72 12.1008 59.72 14.6923C59.72 15.1202 59.7766 15.5346 59.8827 15.9285L51.4452 20.8043C50.6023 19.9286 49.424 19.3846 48.12 19.3846C46.4149 19.3846 44.9246 20.3147 44.1181 21.7006L36.5185 19.5048C36.5195 19.4649 36.52 19.4248 36.52 19.3846C36.52 16.7931 34.4426 14.6923 31.88 14.6923C29.3174 14.6923 27.24 16.7931 27.24 19.3846C27.24 20.1263 27.4102 20.8278 27.7132 21.4514L18.2965 29.6139C17.544 29.0815 16.628 28.7692 15.64 28.7692C13.0774 28.7692 11 30.87 11 33.4615C11 36.053 13.0774 38.1538 15.64 38.1538C18.2026 38.1538 20.28 36.053 20.28 33.4615C20.28 32.7198 20.1098 32.0183 19.8068 31.3947L29.2235 23.2323C29.976 23.7646 30.892 24.0769 31.88 24.0769C33.5851 24.0769 35.0754 23.1468 35.8819 21.7609L43.4815 23.9567C43.4805 23.9967 43.48 24.0367 43.48 24.0769C43.48 26.6684 45.5574 28.7692 48.12 28.7692C50.6826 28.7692 52.76 26.6684 52.76 24.0769C52.76 23.6491 52.7034 23.2346 52.5973 22.8407L61.0348 17.9649C61.8777 18.8407 63.056 19.3846 64.36 19.3846C66.9226 19.3846 69 17.2838 69 14.6923C69 12.1008 66.9226 10 64.36 10ZM59.72 35.8077C59.72 34.5119 60.7587 33.4615 62.04 33.4615H66.68C67.9613 33.4615 69 34.5119 69 35.8077V68.6538C69 69.9496 67.9613 71 66.68 71H62.04C60.7587 71 59.72 69.9496 59.72 68.6538V35.8077ZM45.8 42.8461C44.5187 42.8461 43.48 43.8966 43.48 45.1923V68.6538C43.48 69.9496 44.5187 71 45.8 71H50.44C51.7213 71 52.76 69.9496 52.76 68.6538V45.1923C52.76 43.8966 51.7213 42.8461 50.44 42.8461H45.8ZM11 54.5769C11 53.2812 12.0387 52.2308 13.32 52.2308H17.96C19.2413 52.2308 20.28 53.2812 20.28 54.5769V68.6538C20.28 69.9496 19.2413 71 17.96 71H13.32C12.0387 71 11 69.9496 11 68.6538V54.5769ZM29.56 38.1538C28.2787 38.1538 27.24 39.2043 27.24 40.5V68.6538C27.24 69.9496 28.2787 71 29.56 71H34.2C35.4813 71 36.52 69.9496 36.52 68.6538V40.5C36.52 39.2043 35.4813 38.1538 34.2 38.1538H29.56Z" fill="#1F1F1F"/>
</svg>
