<svg width="16" height="16" viewBox="0 0 16 16" fill="none" xmlns="http://www.w3.org/2000/svg">
<path fill-rule="evenodd" clip-rule="evenodd" d="M11.668 4.49999C11.668 3.67157 12.3395 3 13.168 3H13.9862C14.8146 3 15.4862 3.67157 15.4862 4.49999V7.09089C15.4862 8.1402 14.6396 8.99179 13.5922 8.99991C13.3525 8.45521 13.091 7.99184 12.8924 7.69416C12.564 7.20207 12.0932 6.97119 11.6796 6.88761C11.6757 6.88683 11.6719 6.88605 11.668 6.88529V4.49999ZM11.1538 7.51901V7.5194C11.2664 7.50871 11.3991 7.51228 11.5378 7.53913C11.8186 7.59377 12.1241 7.7439 12.3378 8.06423C12.8192 8.78554 13.782 10.7117 13.5413 12.1561C13.343 13.3464 12.6541 13.5556 12.1485 13.4576C12.0412 13.4367 11.9421 13.4019 11.8578 13.3598C11.6171 13.2394 11.3162 12.9386 11.0154 12.6377C10.7145 12.3368 10.4136 12.036 10.1729 11.9156C10.045 11.8517 9.88316 11.8047 9.70537 11.7702C9.21371 11.6747 8.59983 11.6747 8.246 11.6747C7.76461 11.6747 6.80182 11.6747 6.32043 11.9154C6.07973 12.0357 5.77886 12.3366 5.47799 12.6374C5.17712 12.9383 4.87625 13.2392 4.63555 13.3595C4.44764 13.4535 4.18639 13.5108 3.92337 13.4598C3.51301 13.3797 3.09864 13.0358 2.95206 12.1563C2.76414 11.0288 3.30979 9.60732 3.78722 8.69493L3.78502 8.69629C3.90819 8.46079 4.02685 8.25913 4.12724 8.1051H4.12877L4.15554 8.06449C4.50936 7.53441 5.1144 7.47008 5.44319 7.53383C5.50648 7.54619 5.55946 7.56331 5.59834 7.58275C5.71686 7.64201 5.86453 7.68669 6.03775 7.72037C6.56837 7.82379 7.33926 7.82379 8.24726 7.8238H8.24726H8.24739L8.38492 7.82378V7.82352C8.54251 7.82347 8.69564 7.82326 8.84375 7.82231V7.82258C9.1793 7.82045 9.48912 7.81456 9.76683 7.79833V7.79799C10.2519 7.76957 10.6388 7.70952 10.8937 7.58268C10.9525 7.55339 11.0436 7.52936 11.1538 7.51901ZM11.1538 6.85049V4.02848C11.1538 3.4762 10.7061 3.02848 10.1538 3.02848H2C1.44772 3.02848 1 3.4762 1 4.02848V8.02846C1 8.58074 1.44772 9.02845 2 9.02845H2.88735C3.13039 8.47139 3.39754 7.99699 3.5997 7.69412C3.65286 7.61447 3.70975 7.54167 3.76953 7.47522V7.43202C3.76953 7.29395 3.88146 7.18202 4.01953 7.18202H4.10558C4.33602 7.02565 4.58292 6.93394 4.81225 6.88754C5.19247 6.8106 5.60803 6.84225 5.89647 6.98646C6.00821 7.04233 6.25135 7.0986 6.69579 7.12824C7.12017 7.15655 7.637 7.15687 8.24591 7.15687H8.24604C8.85499 7.15687 9.37124 7.15655 9.79531 7.12824C10.2389 7.09863 10.483 7.04242 10.5966 6.98587C10.7533 6.90785 10.9478 6.86286 11.1538 6.85049ZM13.3711 4.29545C13.3711 4.18248 13.4627 4.09091 13.5756 4.09091C13.6886 4.09091 13.7802 4.18248 13.7802 4.29545V4.97726C13.7802 5.09023 13.6886 5.18181 13.5756 5.18181C13.4627 5.18181 13.3711 5.09023 13.3711 4.97726V4.29545ZM3.78516 3.95133C3.64709 3.95133 3.53516 4.06326 3.53516 4.20133V4.6244C3.53516 4.76247 3.64709 4.8744 3.78516 4.8744H4.20823C4.3463 4.8744 4.45823 4.76247 4.45823 4.6244V4.20133C4.45823 4.06326 4.3463 3.95133 4.20823 3.95133H3.78516ZM2.15234 4.2014C2.15234 4.06333 2.26427 3.95141 2.40234 3.95141H2.82542C2.96349 3.95141 3.07542 4.06333 3.07542 4.2014V4.62448C3.07542 4.76255 2.96349 4.87448 2.82542 4.87448H2.40234C2.26427 4.87448 2.15234 4.76255 2.15234 4.62448V4.2014ZM2.84375 5.81668C2.84375 5.67861 2.95568 5.56668 3.09375 5.56668H3.51683C3.6549 5.56668 3.76683 5.67861 3.76683 5.81668V6.23975C3.76683 6.37782 3.6549 6.48975 3.51683 6.48975H3.09375C2.95568 6.48975 2.84375 6.37782 2.84375 6.23975V5.81668ZM2.63281 7.18202C2.49474 7.18202 2.38281 7.29395 2.38281 7.43202V7.8551C2.38281 7.99317 2.49474 8.1051 2.63281 8.1051H3.05589C3.19396 8.1051 3.30589 7.99317 3.30589 7.8551V7.43202C3.30589 7.29395 3.19396 7.18202 3.05589 7.18202H2.63281ZM4.48047 5.56668C4.3424 5.56668 4.23047 5.67861 4.23047 5.81668V6.23975C4.23047 6.37782 4.3424 6.48975 4.48047 6.48975H4.90355C5.04162 6.48975 5.15355 6.37782 5.15355 6.23975V5.81668C5.15355 5.67861 5.04162 5.56668 4.90355 5.56668H4.48047ZM5.61328 5.81668C5.61328 5.67861 5.72521 5.56668 5.86328 5.56668H6.28636C6.42443 5.56668 6.53636 5.67861 6.53636 5.81668V6.23975C6.53636 6.37782 6.42443 6.48975 6.28636 6.48975H5.86328C5.72521 6.48975 5.61328 6.37782 5.61328 6.23975V5.81668ZM7.25 5.56668C7.11193 5.56668 7 5.67861 7 5.81668V6.23975C7 6.37782 7.11193 6.48975 7.25 6.48975H7.67308C7.81115 6.48975 7.92308 6.37782 7.92308 6.23975V5.81668C7.92308 5.67861 7.81115 5.56668 7.67308 5.56668H7.25ZM8.38281 5.81668C8.38281 5.67861 8.49474 5.56668 8.63281 5.56668H9.05589C9.19396 5.56668 9.30589 5.67861 9.30589 5.81668V6.23975C9.30589 6.37782 9.19396 6.48975 9.05589 6.48975H8.63281C8.49474 6.48975 8.38281 6.37782 8.38281 6.23975V5.81668ZM4.92165 4.20133C4.92165 4.06326 5.03358 3.95133 5.17165 3.95133H5.59473C5.7328 3.95133 5.84473 4.06326 5.84473 4.20133V4.62441C5.84473 4.76248 5.7328 4.87441 5.59473 4.87441H5.17165C5.03358 4.87441 4.92165 4.76248 4.92165 4.62441V4.20133ZM6.55469 3.95133C6.41662 3.95133 6.30469 4.06326 6.30469 4.20133V4.6244C6.30469 4.76247 6.41662 4.8744 6.55469 4.8744H6.97776C7.11584 4.8744 7.22776 4.76247 7.22776 4.6244V4.20133C7.22776 4.06326 7.11584 3.95133 6.97776 3.95133H6.55469ZM7.69141 4.20133C7.69141 4.06326 7.80334 3.95133 7.94141 3.95133H8.36448C8.50255 3.95133 8.61448 4.06326 8.61448 4.20133V4.6244C8.61448 4.76247 8.50255 4.8744 8.36448 4.8744H7.94141C7.80334 4.8744 7.69141 4.76247 7.69141 4.6244V4.20133ZM9.32422 3.95133C9.18615 3.95133 9.07422 4.06326 9.07422 4.20133V4.6244C9.07422 4.76247 9.18615 4.8744 9.32422 4.8744H9.7473C9.88537 4.8744 9.9973 4.76247 9.9973 4.6244V4.20133C9.9973 4.06326 9.88537 3.95133 9.7473 3.95133H9.32422ZM5.59933 8.54587C5.39993 8.54587 5.23828 8.70751 5.23828 8.90691V9.38766H4.75486C4.55546 9.38766 4.39381 9.5493 4.39381 9.7487C4.39381 9.9481 4.55546 10.1097 4.75486 10.1097H5.23828V10.5918C5.23828 10.7912 5.39993 10.9528 5.59933 10.9528C5.79873 10.9528 5.96037 10.7912 5.96037 10.5918V10.1097H6.43974C6.63914 10.1097 6.80078 9.9481 6.80078 9.7487C6.80078 9.5493 6.63914 9.38766 6.43974 9.38766H5.96037V8.90691C5.96037 8.70751 5.79873 8.54587 5.59933 8.54587ZM10.5353 8.90681C10.5353 8.70741 10.6969 8.54577 10.8963 8.54577C11.0957 8.54577 11.2574 8.70741 11.2574 8.90681C11.2574 9.10621 11.0957 9.26785 10.8963 9.26785C10.6969 9.26785 10.5353 9.10621 10.5353 8.90681ZM9.69153 9.74966C9.69153 9.55026 9.85318 9.38861 10.0526 9.38861C10.252 9.38861 10.4136 9.55026 10.4136 9.74966C10.4136 9.94906 10.252 10.1107 10.0526 10.1107C9.85318 10.1107 9.69153 9.94906 9.69153 9.74966ZM11.3751 9.74966C11.3751 9.55026 11.5368 9.38861 11.7362 9.38861C11.9356 9.38861 12.0972 9.55026 12.0972 9.74966C12.0972 9.94906 11.9356 10.1107 11.7362 10.1107C11.5368 10.1107 11.3751 9.94906 11.3751 9.74966ZM10.8963 10.2306C10.6969 10.2306 10.5353 10.3923 10.5353 10.5917C10.5353 10.7911 10.6969 10.9527 10.8963 10.9527C11.0957 10.9527 11.2574 10.7911 11.2574 10.5917C11.2574 10.3923 11.0957 10.2306 10.8963 10.2306Z" fill="#1F1F1F"/>
</svg>
