<svg width="32" height="32" viewBox="0 0 32 32" fill="none" xmlns="http://www.w3.org/2000/svg">
<path d="M22.966 6.51359C23.6483 5.82947 24.7543 5.82951 25.4367 6.51359C26.119 7.19773 26.119 8.30698 25.4367 8.99112L18.4719 15.9735L25.4894 23.0087C26.1717 23.6928 26.1716 24.8021 25.4894 25.4862C24.807 26.1704 23.7011 26.1703 23.0187 25.4862L16.0012 18.4501L8.98366 25.4872C8.30135 26.1709 7.19524 26.171 6.51298 25.4872C5.83066 24.8031 5.83077 23.6938 6.51298 23.0097L13.5305 15.9735L6.56571 8.99112C5.88335 8.30698 5.88335 7.19773 6.56571 6.51359C7.24808 5.82946 8.35403 5.82945 9.0364 6.51359L16.0012 13.496L22.966 6.51359Z" fill="#1F1F1F"/>
</svg>
