<svg width="24" height="24" viewBox="0 0 24 24" fill="none" xmlns="http://www.w3.org/2000/svg">
<path d="M4.49977 13.2502C3.80942 13.2502 3.24977 12.6906 3.24977 12.0002C3.24977 11.3099 3.80942 10.7502 4.49977 10.7502L16.4822 10.7502L11.616 5.88402C11.1278 5.39587 11.1278 4.6046 11.616 4.11644C12.1041 3.62832 12.8954 3.6283 13.3836 4.11644L20.3836 11.1164C20.618 11.3509 20.7498 11.6687 20.7498 12.0002C20.7498 12.3318 20.618 12.6496 20.3836 12.884L13.3836 19.884C12.8954 20.3722 12.1041 20.3721 11.616 19.884C11.1583 19.4264 11.1295 18.7021 11.53 18.2112L11.616 18.1164L16.4822 13.2502L4.49977 13.2502Z" fill="#0152EC"/>
</svg>
