<svg width="16" height="16" viewBox="0 0 16 16" fill="none" xmlns="http://www.w3.org/2000/svg">
<path d="M12.0889 1.21338C13.1933 1.21338 14.0886 2.109 14.0889 3.21338V6.18408C14.5909 6.23728 14.9822 6.66311 14.9824 7.1792V13.7866L14.9766 13.8892C14.9287 14.3598 14.5547 14.7341 14.084 14.7817L13.9824 14.7866H11.2871C10.7348 14.7866 10.2871 14.3389 10.2871 13.7866V12.8003H4.58398C4.42003 12.8001 4.28711 12.6674 4.28711 12.5034C4.28744 12.3397 4.42024 12.2067 4.58398 12.2065H5.54785L5.97168 10.7212H3.01758L2.81348 10.7104C1.87199 10.615 1.12385 9.86676 1.02832 8.92529L1.01758 8.72119V3.21338C1.0178 2.109 1.91315 1.21338 3.01758 1.21338H12.0889ZM11.2871 6.729C11.0387 6.729 10.8371 6.93086 10.8369 7.1792V13.7866C10.8369 14.0351 11.0386 14.2368 11.2871 14.2368H13.9824C14.2308 14.2367 14.4326 14.0351 14.4326 13.7866V7.1792C14.4324 6.93095 14.2307 6.72915 13.9824 6.729H11.2871ZM12.6357 13.1636C12.8514 13.1638 13.0259 13.3386 13.0264 13.5542C13.0264 13.7702 12.8517 13.9456 12.6357 13.9458C12.4197 13.9458 12.2441 13.7703 12.2441 13.5542C12.2446 13.3385 12.4199 13.1636 12.6357 13.1636ZM6.59082 10.7212L6.16602 12.2065H8.94336L8.51855 10.7212H6.59082ZM9.1377 10.7212L9.56152 12.2065H10.2871V10.7212H9.1377ZM3.01758 1.91357C2.29974 1.91357 1.718 2.4956 1.71777 3.21338V8.72119C1.71786 9.43909 2.29966 10.021 3.01758 10.021H10.2871V7.1792C10.2873 6.6271 10.735 6.1792 11.2871 6.1792H13.3896V3.21338C13.3894 2.4956 12.8067 1.91357 12.0889 1.91357H3.01758ZM13.1436 7.04053C13.2953 7.04054 13.4187 7.16424 13.4189 7.31592C13.4187 7.46761 13.2953 7.59032 13.1436 7.59033H12.1289C11.9772 7.59033 11.8537 7.46762 11.8535 7.31592C11.8537 7.16423 11.9772 7.04053 12.1289 7.04053H13.1436Z" fill="#1F1F1F"/>
</svg>
