<svg width="16" height="16" viewBox="0 0 16 16" fill="none" xmlns="http://www.w3.org/2000/svg">
<path d="M6.11914 5.78271C6.5612 5.8318 6.93924 6.07273 7.17871 6.41455C7.71797 6.28255 8.28108 6.28335 8.82031 6.41553C9.05974 6.07311 9.43832 5.83185 9.88086 5.78271L10.0488 5.77295H14.0996C14.5966 5.77295 15 6.17631 15 6.67334C14.9999 6.91184 14.905 7.14042 14.7363 7.30908L14.0469 7.99854V8.00049L14.0352 8.22803C13.9286 9.27638 13.0953 10.1101 12.0469 10.2163L11.8193 10.2271H11.124L10.8936 10.2173C9.75178 10.1124 8.81438 9.2353 8.64941 8.08057L8.56445 7.48486C8.55451 7.41518 8.55016 7.34605 8.5498 7.27783C8.18715 7.19756 7.81189 7.19674 7.44922 7.27686C7.4489 7.34539 7.44554 7.41484 7.43555 7.48486L7.35059 8.08057C7.18562 9.2353 6.24822 10.1124 5.10645 10.2173L4.87598 10.2271H4.18066L3.95312 10.2163C2.90469 10.1101 2.07136 9.27638 1.96484 8.22803L1.95312 8.00049V7.99854L1.26367 7.30908C1.09503 7.14042 1.00012 6.91184 1 6.67334C1 6.17631 1.40336 5.77295 1.90039 5.77295H5.95117L6.11914 5.78271ZM4.18066 6.67334C3.44763 6.67334 2.85352 7.26745 2.85352 8.00049C2.85366 8.7334 3.44772 9.32764 4.18066 9.32764H4.87598C5.67214 9.32755 6.34736 8.74179 6.45996 7.95361L6.54492 7.35791C6.59655 6.99655 6.31616 6.67351 5.95117 6.67334H4.18066ZM10.0488 6.67334C9.68384 6.67351 9.40345 6.99655 9.45508 7.35791L9.54004 7.95361C9.65264 8.74179 10.3279 9.32755 11.124 9.32764H11.8193C12.5523 9.32764 13.1463 8.7334 13.1465 8.00049C13.1465 7.26745 12.5524 6.67334 11.8193 6.67334H10.0488ZM1.95508 6.40967C1.77935 6.40967 1.63672 6.5523 1.63672 6.72803C1.63681 6.90367 1.77941 7.04639 1.95508 7.04639C2.13066 7.04629 2.27334 6.90361 2.27344 6.72803C2.27344 6.55236 2.13072 6.40976 1.95508 6.40967ZM14.0449 6.40967C13.8693 6.40976 13.7266 6.55236 13.7266 6.72803C13.7267 6.90361 13.8693 7.04629 14.0449 7.04639C14.2206 7.04639 14.3632 6.90367 14.3633 6.72803C14.3633 6.5523 14.2206 6.40967 14.0449 6.40967Z" fill="#1F1F1F"/>
</svg>
