<svg width="24" height="24" viewBox="0 0 24 24" fill="none" xmlns="http://www.w3.org/2000/svg">
<path fill-rule="evenodd" clip-rule="evenodd" d="M12 3.95831C14.2091 3.95831 16 5.74917 16 7.95831V9.46515C17.1646 9.8772 17.9999 10.9856 18 12.2913V16.2913C18 17.9482 16.6569 19.2913 15 19.2913H9C7.34315 19.2913 6 17.9482 6 16.2913V12.2913C6.00014 10.9856 6.83536 9.8772 8 9.46515V7.95831C8 5.74917 9.79086 3.95831 12 3.95831ZM12 5.62531C10.7113 5.62531 9.66699 6.66965 9.66699 7.95831V9.29132H14.333V7.95831C14.333 6.66965 13.2887 5.62531 12 5.62531Z" fill="#1F1F1F"/>
</svg>
