<svg width="60" height="55" viewBox="0 0 60 55" fill="none" xmlns="http://www.w3.org/2000/svg">
<path fill-rule="evenodd" clip-rule="evenodd" d="M45.7375 20.0387C45.7375 28.8923 38.7238 36.0696 30.0718 36.0696C21.4199 36.0696 14.4061 28.8923 14.4061 20.0387C14.4061 11.185 21.4199 4.00773 30.0718 4.00773C38.7238 4.00773 45.7375 11.185 45.7375 20.0387ZM30.2863 40.0762C30.2149 40.0769 30.1434 40.0773 30.0718 40.0773C29.9523 40.0773 29.833 40.0762 29.714 40.0741L18.9161 54.4742C18.2081 55.4185 16.7379 55.0153 16.5861 53.8354L14.9138 40.8373C14.8668 40.4715 14.5389 40.2141 14.1815 40.2622L1.47955 41.9734C0.326444 42.1288 -0.434578 40.7799 0.273445 39.8357L11.172 25.3013C10.7271 23.6243 10.4897 21.8598 10.4897 20.0387C10.4897 8.97162 19.2569 0 30.0718 0C40.8867 0 49.654 8.97162 49.654 20.0387C49.654 21.9114 49.4029 23.7241 48.9334 25.4436L59.7266 39.8374C60.4346 40.7816 59.6736 42.1305 58.5205 41.9752L45.8185 40.2639C45.4611 40.2158 45.1332 40.4732 45.0862 40.839L43.4139 53.8371C43.2621 55.0171 41.7919 55.4202 41.0839 54.4759L30.2863 40.0762Z" fill="#1F1F1F"/>
</svg>
