<svg width="32" height="32" viewBox="0 0 32 32" fill="none" xmlns="http://www.w3.org/2000/svg">
<path d="M5.28516 17.875C4.24973 17.875 3.41033 17.0353 3.41016 16C3.41016 14.9644 4.24962 14.125 5.28516 14.125L22.1875 14.125L15.3877 7.32515C14.6558 6.59302 14.6559 5.40598 15.3877 4.67378C16.1199 3.94155 17.3078 3.94155 18.04 4.67378L28.04 14.6738C28.3917 15.0254 28.5889 15.5027 28.5889 16C28.5888 16.4971 28.3915 16.9736 28.04 17.3252L18.04 27.3261L17.8975 27.4541C17.161 28.055 16.0743 28.0127 15.3877 27.3261C14.7012 26.6396 14.6589 25.5528 15.2598 24.8164L15.3877 24.6738L22.1865 17.875L5.28516 17.875Z" fill="#0152EC"/>
</svg>
