<svg width="24" height="24" viewBox="0 0 24 24" fill="none" xmlns="http://www.w3.org/2000/svg">
<path d="M1.5 9.5C1.5 5.08172 5.08172 1.5 9.5 1.5H14.5C18.9183 1.5 22.5 5.08172 22.5 9.5V14.5C22.5 18.9183 18.9183 22.5 14.5 22.5H9.5C5.08172 22.5 1.5 18.9183 1.5 14.5V9.5Z" fill="white"/>
<path d="M9.69434 14.7031L3.52637 19.8184C3.26092 19.5204 3.01784 19.2026 2.79883 18.8672L8.34961 14.2959H9.69434V14.7031Z" fill="#C8102F"/>
<path d="M21.2002 18.8672C20.9811 19.2026 20.7382 19.5204 20.4727 19.8184L14.3057 14.7031V14.2959H15.6504L21.2002 18.8672Z" fill="#C8102F"/>
<path d="M9.69434 9.29688V9.7041H8.34961L2.79883 5.13184C3.01786 4.79651 3.26091 4.47856 3.52637 4.18066L9.69434 9.29688Z" fill="#C8102F"/>
<path d="M20.4727 4.18066C20.7382 4.47857 20.9811 4.79649 21.2002 5.13184L15.6504 9.7041H14.3057V9.29688L20.4727 4.18066Z" fill="#C8102F"/>
<path d="M19.6426 20.6309C18.2535 21.7936 16.4649 22.4951 14.5117 22.4951H14.3115V16.168L19.6426 20.6309Z" fill="#022169"/>
<path d="M9.69922 22.4951H9.5C7.54608 22.4951 5.75647 21.7934 4.36719 20.6299L9.69922 16.168V22.4951Z" fill="#022169"/>
<path d="M22.5107 14.5361C22.505 15.6824 22.2572 16.7707 21.8174 17.7549L17.6475 14.3154H22.5107V14.5361Z" fill="#022169"/>
<path d="M2.19336 17.7539C1.74864 16.7583 1.5 15.656 1.5 14.4951V14.3154H6.3623L2.19336 17.7539Z" fill="#022169"/>
<path d="M6.3623 9.66406H1.5V9.49512C1.5 8.33084 1.75007 7.2254 2.19727 6.22754L6.3623 9.66406Z" fill="#022169"/>
<path d="M21.8135 6.22656C22.2556 7.21273 22.5048 8.30379 22.5107 9.45312V9.66406H17.6475L21.8135 6.22656Z" fill="#022169"/>
<path d="M9.69922 7.82227L4.36719 3.35938C5.7564 2.19607 7.5463 1.49512 9.5 1.49512H9.69922V7.82227Z" fill="#022169"/>
<path d="M14.5117 1.49512C16.4647 1.49512 18.2536 2.19591 19.6426 3.3584L14.3115 7.82227V1.49512H14.5117Z" fill="#022169"/>
<path d="M10.6875 1.5H13.3125V22.5H10.6875V1.5Z" fill="#C8102F"/>
<path d="M22.5 10.6875V13.3125L1.5 13.3125L1.5 10.6875L22.5 10.6875Z" fill="#C8102F"/>
</svg>
