<svg width="24" height="24" viewBox="0 0 24 24" fill="none" xmlns="http://www.w3.org/2000/svg">
<path d="M15.25 1.55963C15.708 1.59483 16.0897 1.65077 16.4434 1.73932C19.3066 2.45652 21.5424 4.69257 22.2598 7.55573C22.4995 8.51286 22.5 9.67559 22.5 12.0001C22.5 14.3243 22.4994 15.4863 22.2598 16.4434C21.5425 19.3068 19.3068 21.5426 16.4434 22.2598C16.0897 22.3484 15.708 22.4043 15.25 22.4395V1.55963Z" fill="#E32D3C"/>
<path d="M12 1.5C13.4652 1.5 14.4687 1.49959 15.25 1.55963V22.4395C14.4686 22.4996 13.4653 22.5 12 22.5C10.3735 22.5 9.31631 22.4972 8.5 22.415V1.58398C9.3163 1.50185 10.3735 1.5 12 1.5Z" fill="white"/>
<path d="M8.5 22.415C8.14986 22.3798 7.84393 22.3318 7.55664 22.2598C4.69324 21.5426 2.45748 19.3068 1.74023 16.4434C1.50055 15.4863 1.5 14.3243 1.5 12.0001C1.5 9.67559 1.50048 8.51286 1.74023 7.55573C2.45761 4.69257 4.69341 2.45652 7.55664 1.73932C7.8439 1.6674 8.1499 1.61921 8.5 1.58398V22.415Z" fill="#2A4896"/>
</svg>
