<svg width="24" height="24" viewBox="0 0 24 24" fill="none" xmlns="http://www.w3.org/2000/svg">
<path d="M12.9902 10.8467H12.9668C12.9743 10.8355 12.9825 10.8248 12.9902 10.8135V10.8467Z" fill="#1F1F1F"/>
<path fill-rule="evenodd" clip-rule="evenodd" d="M16.0996 1.5C18.3398 1.5 19.4608 1.49957 20.3164 1.93555C21.0689 2.31902 21.681 2.93109 22.0645 3.68359C22.5004 4.53924 22.5 5.66018 22.5 7.90039V16.0996C22.5 18.3398 22.5004 19.4608 22.0645 20.3164C21.681 21.0689 21.0689 21.681 20.3164 22.0645C19.4608 22.5004 18.3398 22.5 16.0996 22.5H7.90039C5.66018 22.5 4.53924 22.5004 3.68359 22.0645C2.93109 21.681 2.31902 21.0689 1.93555 20.3164C1.49957 19.4608 1.5 18.3398 1.5 16.0996V7.90039C1.5 5.66018 1.49957 4.53924 1.93555 3.68359C2.31902 2.93109 2.93109 2.31902 3.68359 1.93555C4.53924 1.49957 5.66018 1.5 7.90039 1.5H16.0996ZM3.95898 19.5H7.49609V9.37891H3.95898V19.5ZM16.1777 9.1416C14.3007 9.14161 13.4598 10.124 12.9902 10.8135V9.37891H9.45312C9.49953 10.3285 9.45312 19.5 9.45312 19.5H12.9902V13.8477C12.9902 13.5452 13.0129 13.2426 13.1064 13.0273C13.3621 12.4224 13.9451 11.7969 14.9219 11.7969C16.2018 11.7971 16.7129 12.7256 16.7129 14.0859V19.5H20.25V13.6963C20.2498 10.5878 18.5052 9.1416 16.1777 9.1416ZM5.75098 4.5C4.54098 4.50003 3.75 5.25623 3.75 6.24902C3.75018 7.21996 4.51756 7.99788 5.7041 7.99805H5.72754C6.9603 7.99805 7.72832 7.22006 7.72852 6.24902C7.7052 5.25625 6.96073 4.50003 5.75098 4.5Z" fill="#1F1F1F"/>
</svg>
