<svg width="80" height="80" viewBox="0 0 80 80" fill="none" xmlns="http://www.w3.org/2000/svg">
<path fill-rule="evenodd" clip-rule="evenodd" d="M26.6667 27.7778C26.6667 20.414 32.6362 14.4445 40 14.4445C47.3638 14.4445 53.3333 20.414 53.3333 27.7778V32.8308C53.764 32.9613 54.1622 33.1197 54.5399 33.3122C56.4215 34.2709 57.9513 35.8007 58.9101 37.6823C60 39.8214 60 42.6217 60 48.2222V49.5556C60 55.1561 60 57.9564 58.9101 60.0955C57.9513 61.9771 56.4215 63.5069 54.5399 64.4656C52.4008 65.5556 49.6005 65.5556 44 65.5556H36C30.3995 65.5556 27.5992 65.5556 25.4601 64.4656C23.5785 63.5069 22.0487 61.9771 21.0899 60.0955C20 57.9564 20 55.1561 20 49.5556V48.2222C20 42.6217 20 39.8214 21.0899 37.6823C22.0487 35.8007 23.5785 34.2709 25.4601 33.3122C25.8378 33.1197 26.236 32.9613 26.6667 32.8308V27.7778ZM32.2222 32.2404C33.3227 32.2222 34.5701 32.2222 36 32.2222H44C45.4299 32.2222 46.6773 32.2222 47.7778 32.2404V27.7772C47.7778 23.4817 44.2955 19.9995 40 19.9995C35.7045 19.9995 32.2222 23.4817 32.2222 27.7773V32.2404Z" fill="#1F1F1F"/>
</svg>
