<svg width="32" height="32" viewBox="0 0 32 32" fill="none" xmlns="http://www.w3.org/2000/svg">
<path d="M16 4C16.4643 4 16.6966 3.99966 16.8926 4.01367C19.6207 4.20888 21.7911 6.37935 21.9863 9.10742C22.0003 9.30336 22 9.53571 22 10V12.126C23.7252 12.57 25 14.1362 25 16V23C25 25.2091 23.2091 27 21 27L11 27C8.79086 27 7 25.2091 7 23L7 16C7 14.1362 8.27477 12.57 10 12.126L10 10C10 9.53571 9.99966 9.30336 10.0137 9.10742C10.2089 6.37935 12.3793 4.20888 15.1074 4.01367C15.3034 3.99966 15.5357 4 16 4ZM16 6.5C15.5356 6.5 15.3033 6.49973 15.1084 6.52539C13.7622 6.70262 12.7026 7.7622 12.5254 9.1084C12.4997 9.30334 12.5 9.53559 12.5 10V12L19.5 12V10C19.5 9.53559 19.5003 9.30334 19.4746 9.1084C19.2974 7.7622 18.2378 6.70262 16.8916 6.52539C16.6967 6.49973 16.4644 6.5 16 6.5Z" fill="#F6F6F6"/>
</svg>
