<svg width="24" height="24" viewBox="0 0 24 24" fill="none" xmlns="http://www.w3.org/2000/svg">
<path d="M18.8799 3.22171L3.51183 8.19374C2.79607 8.42531 2.43818 8.5411 2.32841 8.72812C2.23331 8.89016 2.22417 9.08867 2.30399 9.25876C2.39611 9.45508 2.74185 9.60325 3.43332 9.89959L9.17837 12.3618L15.4479 7.8021L10.8882 14.0716L13.3504 19.8167C13.6468 20.5082 13.7949 20.8539 13.9912 20.946C14.1613 21.0258 14.3598 21.0167 14.5219 20.9216C14.7089 20.8118 14.8247 20.4539 15.0563 19.7382L20.0283 4.37007C20.2056 3.82206 20.2942 3.54805 20.2281 3.3647C20.1706 3.2051 20.0449 3.07943 19.8853 3.02187C19.702 2.95576 19.4279 3.04441 18.8799 3.22171Z" fill="#1F1F1F"/>
</svg>
