<svg width="16" height="16" viewBox="0 0 16 16" fill="none" xmlns="http://www.w3.org/2000/svg">
<path d="M8 12.4541C8.35143 12.4541 8.63667 12.7394 8.63672 13.0908V14.3633C8.63672 14.7147 8.35145 15 8 15C7.64855 15 7.36328 14.7147 7.36328 14.3633V13.0908C7.36333 12.7394 7.64857 12.4541 8 12.4541ZM3.95117 11.1504C4.19968 10.9022 4.60216 10.9021 4.85059 11.1504C5.0991 11.3989 5.0991 11.8023 4.85059 12.0508L3.95117 12.9502C3.70266 13.1987 3.2993 13.1987 3.05078 12.9502C2.8024 12.7017 2.80243 12.2993 3.05078 12.0508L3.95117 11.1504ZM11.1494 11.1504C11.3978 10.9022 11.8003 10.9022 12.0488 11.1504L12.9492 12.0508C13.1975 12.2992 13.1975 12.7017 12.9492 12.9502C12.7007 13.1987 12.2973 13.1987 12.0488 12.9502L11.1494 12.0508C10.9009 11.8023 10.9009 11.3989 11.1494 11.1504ZM8 5C9.65685 5 11 6.34315 11 8C11 9.65685 9.65685 11 8 11C6.34315 11 5 9.65685 5 8C5 6.34315 6.34315 5 8 5ZM2.90918 7.36426C3.26048 7.3643 3.54572 7.64873 3.5459 8C3.5459 8.35143 3.26059 8.63667 2.90918 8.63672H1.63672C1.28526 8.63672 1 8.35145 1 8C1.00018 7.6487 1.28538 7.36426 1.63672 7.36426H2.90918ZM14.3633 7.36328C14.7147 7.36328 15 7.64855 15 8C15 8.35145 14.7147 8.63672 14.3633 8.63672H13.0908C12.7394 8.63667 12.4541 8.35142 12.4541 8C12.4541 7.64858 12.7394 7.36333 13.0908 7.36328H14.3633ZM3.05078 3.05078C3.29926 2.8024 3.7017 2.80243 3.9502 3.05078L4.85059 3.95117C5.09876 4.19968 5.0989 4.60217 4.85059 4.85059C4.60207 5.0991 4.19871 5.0991 3.9502 4.85059L3.05078 3.95117C2.80227 3.70266 2.80227 3.2993 3.05078 3.05078ZM12.0498 3.05078C12.2983 2.80231 12.7007 2.80238 12.9492 3.05078C13.1977 3.2993 13.1977 3.70168 12.9492 3.9502L12.0498 4.85059C11.8013 5.0991 11.3979 5.0991 11.1494 4.85059C10.901 4.60206 10.9009 4.19867 11.1494 3.9502L12.0498 3.05078ZM8 1C8.35145 1 8.63672 1.28527 8.63672 1.63672V2.90918C8.63667 3.26059 8.35142 3.5459 8 3.5459C7.64858 3.5459 7.36333 3.26059 7.36328 2.90918V1.63672C7.36328 1.28526 7.64855 1 8 1Z" fill="white"/>
</svg>
