<svg width="24" height="24" viewBox="0 0 24 24" fill="none" xmlns="http://www.w3.org/2000/svg">
<path d="M17.2245 4.88519C17.7362 4.3721 18.5657 4.37213 19.0775 4.88519C19.5892 5.3983 19.5892 6.23023 19.0775 6.74334L13.8539 11.9802L19.117 17.2565C19.6288 17.7696 19.6287 18.6016 19.117 19.1147C18.6053 19.6278 17.7758 19.6277 17.264 19.1147L12.0009 13.8376L6.73773 19.1154C6.226 19.6282 5.39642 19.6282 4.88472 19.1154C4.37298 18.6023 4.37306 17.7704 4.88472 17.2573L10.1479 11.9802L4.92427 6.74334C4.41249 6.23023 4.41249 5.3983 4.92427 4.88519C5.43604 4.3721 6.26551 4.37209 6.77728 4.88519L12.0009 10.122L17.2245 4.88519Z" fill="#1F1F1F"/>
</svg>
