<svg width="80" height="80" viewBox="0 0 80 80" fill="none" xmlns="http://www.w3.org/2000/svg">
<path d="M20 1H60C70.4934 1 79 9.50659 79 20V60C79 70.4934 70.4934 79 60 79H20C9.50659 79 1 70.4934 1 60V20C1 9.50659 9.50659 1 20 1Z" stroke="#1F1F1F" stroke-width="2"/>
<path d="M20.5957 56.9902C21.4542 56.9903 22.2197 57.1538 22.8916 57.4805C23.5727 57.7977 24.1231 58.2501 24.543 58.8379C24.9723 59.4259 25.2575 60.1125 25.3975 60.8965H22.1211C21.9718 60.5698 21.7575 60.317 21.4775 60.1396C21.2069 59.953 20.8937 59.8604 20.5391 59.8604C20.0166 59.8604 19.6009 60.0563 19.293 60.4482C18.9945 60.8402 18.8457 61.3678 18.8457 62.0303C18.8457 62.6928 18.9943 63.2204 19.293 63.6123C19.6009 64.0042 20.0166 64.2001 20.5391 64.2002C20.8937 64.2002 21.2069 64.1109 21.4775 63.9336C21.7573 63.747 21.9718 63.4905 22.1211 63.1641H25.3975C25.2575 63.948 24.9723 64.6337 24.543 65.2217C24.123 65.8096 23.5728 66.2671 22.8916 66.5938C22.2197 66.911 21.4542 67.0703 20.5957 67.0703C19.5971 67.0703 18.7285 66.8604 17.9912 66.4404C17.254 66.0111 16.6845 65.4136 16.2832 64.6484C15.8912 63.8832 15.6953 63.0102 15.6953 62.0303C15.6953 61.0503 15.8913 60.1774 16.2832 59.4121C16.6845 58.6468 17.2539 58.0538 17.9912 57.6338C18.7285 57.2045 19.597 56.9902 20.5957 56.9902ZM29.624 64.6484H32.6201V67H26.5166V57.0879H29.624V64.6484ZM36.7061 67H33.5986V57.0879H36.7061V67ZM44.7178 59.5664H41.2178V60.7842H44.2979V63.1221H41.2178V64.5225H44.7178V67H38.1104V57.0879H44.7178V59.5664ZM52.2871 62.1562V57.0879H55.3955V67H52.2871L48.9971 62.0156V67H45.8896V57.0879H48.9971L52.2871 62.1562ZM64.584 59.5518H61.9512V67H58.8438V59.5518H56.2393V57.0879H64.584V59.5518ZM28.001 49C28.001 50.1046 27.1055 51 26.001 51H18.001C16.8964 51 16.001 50.1046 16.001 49V32C16.001 30.8954 16.8964 30 18.001 30H26.001C27.1055 30 28.001 30.8954 28.001 32V49ZM65.001 49C65.001 50.1046 64.1055 51 63.001 51H55.001C53.8964 51 53.001 50.1046 53.001 49V32C53.001 30.8954 53.8964 30 55.001 30H63.001C64.1055 30 65.001 30.8954 65.001 32V49ZM46.501 48.998C46.501 50.1026 45.6055 50.998 44.501 50.998H36.501C35.3964 50.998 34.501 50.1026 34.501 48.998V36.7949C36.3465 37.5704 38.3737 37.999 40.501 37.999C42.6283 37.999 44.6555 37.5704 46.501 36.7949V48.998ZM40.501 11C46.8523 11 52.001 16.1487 52.001 22.5C52.001 28.8513 46.8523 34 40.501 34C34.1497 34 29.001 28.8513 29.001 22.5C29.001 16.1487 34.1497 11 40.501 11ZM40.501 18C38.0157 18 36.001 20.0147 36.001 22.5C36.001 24.9853 38.0157 27 40.501 27C42.9863 27 45.001 24.9853 45.001 22.5C45.001 20.0147 42.9863 18 40.501 18Z" fill="#1F1F1F"/>
</svg>
