<svg width="32" height="32" viewBox="0 0 32 32" fill="none" xmlns="http://www.w3.org/2000/svg">
<path d="M13.6045 23.6602H18.3857V18.6592C18.3857 18.4541 18.3242 18.29 18.2012 18.167C18.0781 18.0381 17.9111 17.9736 17.7002 17.9736H14.2988C14.0938 17.9736 13.9268 18.0381 13.7979 18.167C13.6689 18.29 13.6045 18.4541 13.6045 18.6592V23.6602ZM8.00586 23.4668V16.9365L15.4414 10.6963C15.8105 10.3857 16.1797 10.3857 16.5488 10.6963L23.9756 16.9365V23.4668C23.9756 24.1113 23.7822 24.6182 23.3955 24.9873C23.0088 25.3623 22.4785 25.5498 21.8047 25.5498H10.1855C9.51172 25.5498 8.97852 25.3623 8.58594 24.9873C8.19922 24.6182 8.00586 24.1113 8.00586 23.4668ZM6.08984 16.4092C5.78516 16.4092 5.54199 16.3184 5.36035 16.1367C5.17871 15.9492 5.08789 15.7236 5.08789 15.46C5.08789 15.1553 5.21973 14.8945 5.4834 14.6777L14.6416 6.9873C15.0576 6.62988 15.5088 6.45117 15.9951 6.45117C16.4873 6.45117 16.9414 6.62988 17.3574 6.9873L26.5156 14.6777C26.7793 14.8945 26.9111 15.1553 26.9111 15.46C26.9111 15.7236 26.8203 15.9492 26.6387 16.1367C26.4629 16.3184 26.2168 16.4092 25.9004 16.4092C25.7539 16.4092 25.6133 16.377 25.4785 16.3125C25.3438 16.2422 25.2178 16.1572 25.1006 16.0576L16.417 8.78027C16.2881 8.66309 16.1475 8.60449 15.9951 8.60449C15.8486 8.60449 15.7109 8.66309 15.582 8.78027L6.89844 16.0576C6.78125 16.1572 6.65527 16.2422 6.52051 16.3125C6.38574 16.377 6.24219 16.4092 6.08984 16.4092ZM21.4707 10.9863V9C21.4707 8.79492 21.5322 8.63379 21.6553 8.5166C21.7783 8.39355 21.9365 8.33203 22.1299 8.33203H23.501C23.7061 8.33203 23.8672 8.39355 23.9844 8.5166C24.1016 8.63379 24.1602 8.79492 24.1602 9V13.2451L21.4707 10.9863Z" fill="white"/>
</svg>
